<?xml version="1.0" standalone="no"?>
<!DOCTYPE svg PUBLIC "-//W3C//DTD SVG 1.1//EN" "http://www.w3.org/Graphics/SVG/1.1/DTD/svg11.dtd" >
<svg xmlns="http://www.w3.org/2000/svg">
<metadata>
This is a custom SVG webfont generated by Font Squirrel.
Copyright   : Copyright  2012 ProPublica See LICENSE file for redistribution details
Designer    : ProPublica
Foundry     : USGS
</metadata>
<defs>
<font id="StateFaceRegular" horiz-adv-x="2662" >
<font-face units-per-em="2048" ascent="1638" descent="-410" />
<missing-glyph horiz-adv-x="1228" />
<glyph unicode=" "  horiz-adv-x="1228" />
<glyph unicode="&#x09;" horiz-adv-x="1228" />
<glyph unicode="&#xa0;" horiz-adv-x="1228" />
<glyph unicode="A" horiz-adv-x="2514" d="M-770 313l41 -37l-8 21l-2 14zM-745 242l14 -13l8 11l-8 2h-14zM-612 168l4 -4v4l-4 6v-6zM-557 88l27 8l2 6l-29 -6v-8zM-510 59l6 -8h6zM-487 59h10l-2 9l-8 -2v-7zM-479 33l18 -43l4 -4l-4 8zM-434 41l10 -8l14 2l-8 16zM-369 -49v-2l13 2l-6 4zM-340 -10v-6l4 2z M-303 -16l8 -33l27 18l-15 4zM-283 -45v-4l39 -2v16zM-236 -72h27v27l-8 8zM-201 -55v-17h13l-7 17h-6zM-182 -72h6v11h-4zM-180 -61l8 -11v11h-8zM-176 -45l4 -6l6 2l-6 12zM-162 -61h6v6zM-131 -61l37 -17h35l16 29zM-49 -78l22 -16l35 -6l-22 6l-13 12zM35 -88h14v6z M115 -88l10 -6v6l-4 2zM145 -88h15v6zM186 -86h7l10 4l-10 4zM203 -78l14 -8v14zM219 -61v-11l4 11h-4zM244 705l10 -25l18 -10zM254 -88l20 2l66 35l-6 20zM279 342l8 -6l12 6v6zM305 281l2 -5h12zM340 -55h61l41 41l-45 4l15 -25l-29 -16zM377 958l14 -14l19 14h4l22 -28 l-4 -8l21 -11l8 -18l41 18l-60 62l-28 -6l-23 30zM418 944l14 -18v4l-4 6zM436 -31v-6l6 2l4 8zM461 4v-14h18l-10 10zM479 4l4 -14l11 4l-7 10h-8zM496 608l59 -61l31 20l-19 43zM502 -14l14 -2l6 2l-14 4zM530 18l107 7l-2 10l-14 6l-5 25h-14l-47 -11zM575 1141l31 -31 l47 -25l-32 5v-13l14 -24l2 -35l127 -35l2 25l10 -35l74 55l14 -29l-33 -26l31 -58l-26 -30l-45 8l-76 -49l6 20l-25 6v-16l-34 -14l8 -41l-23 10l-31 -61h-26l16 -70l21 22l26 15l-10 -10h-6l-2 -5h-8l-2 -14l-9 -2l27 -14l-18 -19h10l41 -10l14 8l-8 -14l23 -10l-52 -9 l4 13l-14 12l-8 10l-33 -33l80 -81l49 8l-2 28l41 37l-31 -37l27 -86l-16 -16l8 -20h12l-6 -29l-33 -14l27 -9l73 43l70 -75l23 75l16 -14l4 -14l-8 14l-12 -6l12 -33l74 47l-9 -37l-32 -43l22 -18l-22 -2l2 -60l-47 -16l-23 -53l-12 12l-88 -55v-51l-25 14v-14l-16 30 l-39 -6l-96 -69l-4 -23l16 6l-2 17l27 -17v37l14 -33h29l20 51l33 -10l-13 -16l82 43l9 -27l8 27l51 4l4 20h6v-18l19 18l-25 11l14 16l103 45v41l117 70l57 73l-51 31l41 62l10 -11l29 25l-21 37h12l11 -6l6 6l86 104l30 -6l35 33l-35 -43l50 -19l-70 9l-43 -29l-18 -100 l2 -9l18 -2l16 11l-12 -29l-24 -6l6 -25l35 6l14 35l33 10v17l14 -12v30l8 -26l6 45l8 -31l39 16v31l21 16h-35l10 9l15 8l-31 20l41 49v-43l10 29l17 -20l45 24l-21 -24h31l-21 -15l25 8l-8 -10l35 2l-7 -14l-6 -6l29 -12l27 47l-7 -52l39 -16l125 16l10 17l7 -17l-2 -10 l51 -6l37 45l32 -20l-14 -25l-14 39l-11 -49l191 -92l22 32l-38 35l-27 -12v27l51 -25l-8 33l22 -8l7 -52l22 11l27 -11l-49 111l59 -92h16l19 -12l8 38v-45l16 7l17 -31v14l39 -24l-6 -9l-29 13l-4 -4l39 -17v-6l-6 -12l-15 -2v-11l43 5l27 -35l67 -25v-6l-22 -6l8 -60 l43 72l45 -72l-10 -16l16 27l-6 -58l31 31l-31 102l-106 19l-129 145l-129 92l-47 -22l-9 -49l-6 -2l-28 -35l-113 100v25l-88 -19l-182 900l-78 32l-64 -26l-157 39l-56 -13l-49 8l21 5l-9 28l-63 -8l-29 37l-31 -37l-8 10l19 27l-25 22l-49 -51l-80 -14l31 -14l-21 -31 l-14 18l10 23l-78 -35l7 18l-70 -110l-100 -6l-21 -45l78 -88l10 -54h55v-8l-4 -16l35 -4l-6 -39l49 4v-25l-55 11l-23 53l9 -70l28 6l6 -22l-106 6l-19 16l25 37v2h-20l-62 -14l8 -21l-39 7l-51 -33h-31zM621 1151l14 6l2 6zM643 1167l19 15h-5zM647 4l6 -14v10zM662 -6v-4 h8zM676 45l12 -4v10zM690 1188h6l2 4zM705 59l4 -8l12 4l-6 4h-10zM705 1192l20 8l4 2zM731 66l8 -7v7h-8zM766 51l18 4l-8 13v12zM770 895l14 -2v10h-8zM784 68l11 -9v15h-4zM791 399l10 4l10 13zM795 80l14 -6v6l-8 8zM799 25l28 26l-6 4l-20 -4zM831 41l11 10v8zM842 33 h8v8h-8v-8zM850 20l6 5l-6 8v-13zM856 113l6 -7v7h-6zM879 113h16l-6 10h-10v-10zM971 178h20l-6 4h-10zM1053 102h16v11h-6zM1112 162l16 12v8zM1112 260l27 -53l8 26h18l-18 -36l51 63l29 -6l-17 16l37 6l-43 37l-14 9l14 -19l-24 -22l-23 16l12 -49l-4 6l-8 8v14h-10l2 5 l-6 6zM1133 174h10l4 8l-8 -4zM1147 174l10 -6v6l-8 4zM1176 313l16 -10v8l-12 6zM1176 451h8v10l-8 -6v-4zM1184 229l6 -10l22 14l-14 7zM1184 330l28 -8h-8l-6 10h-6zM1192 336l27 -19l43 35l-41 15l-9 -11l7 -4v-4zM1210 352l2 -4h7l-7 4h-2zM1212 313h7l2 4h-9v-4z M1221 373l6 -6l4 14v2zM1227 313l10 -2v2l-6 4zM1231 408l12 6h-6v2zM1243 555h4l15 12l-9 6zM1264 338l4 4v6zM1313 455h4l6 6l-6 6zM1333 467h6v4h-6v-4zM1427 602l9 -6v12h-9v-6zM1436 616l2 -6l4 6l-4 9zM1442 596l4 6l-4 6v-12zM1473 625l8 -7v7h-8zM1513 563l19 15v4 l-8 -4l-11 4v-19zM1524 582l8 8l20 12v6zM1575 578h10v12zM2054 451l8 -29v20zM2060 461l29 -27l-21 8v-20l39 -29l11 6l-21 29l60 -20l-15 28l-53 15l49 -9v25l-41 -16l-6 20l-16 -20l-13 16zM2107 383l11 -31l14 4l-8 27h-17zM2132 399l18 -57l27 -4l27 -45l-17 49l-28 51 zM2132 496l51 -82l-6 -41l33 43l-47 61l47 -35l-41 45zM2142 492l21 -5l-6 9h-7zM2202 356l32 -75l2 67l-16 19zM2220 393l23 -57l28 6l-22 39l26 -19l-4 31h-51zM2224 270l10 -2l2 8h-8zM2249 276h6l-6 5v-5zM2255 330l2 -17h14l21 -26l-4 -25l20 8l-2 -37l27 7l55 -43 l-21 57l-40 6l4 16l26 -6zM2257 281l18 16l-4 16l-14 -10v-22zM2271 240l4 2l-4 6v-8zM2271 276l4 -8l13 8h-17zM2275 225l13 -6l4 21h-11zM2275 383l6 -31h11l6 15zM2281 242h7l4 6h-11v-6zM2281 276h7v5zM2281 336l17 -4v16l-10 -6zM2288 254l8 -6v6h-8zM2292 229l4 -10 l10 6l-8 8zM2306 322l37 -9l-10 19h-21v10zM2312 356l31 -24l4 6l-20 10zM2316 199l35 -17l-35 33v-16zM2331 215h2l10 4l-12 10v-14zM2343 199l14 -6l-6 14h-8v-8zM2367 270l17 -22h4v14zM2367 276l27 -8v29l23 -35v49l-29 21zM2394 262l4 -29l12 21l-8 6zM2410 229h13v13z " />
<glyph unicode="B" horiz-adv-x="1212" d="M102 506l9 -496l30 2l49 -26l37 135l27 -47l-6 -35l6 -27h25l18 -41l-78 -16l109 10l28 17h-10v8l14 -4l43 39l-10 34l10 39l-63 66l10 41l731 -4l-2 30l-26 33l18 119l-31 96l31 109l39 35l-29 24l2 35l-32 66l-29 92l-109 682l-704 10l24 -35zM141 -35h66l-10 6z" />
<glyph unicode="C" horiz-adv-x="1937" d="M102 1524l768 -11h795l31 -51v-37l-80 -75l-29 -56l234 11l14 -45l-25 6l-14 -17l33 -20l-86 -43l14 -35l-10 -23l6 -22l-33 -16l-2 -27l-28 -39l14 -88l-12 -12h-21l-18 -37l-33 -21l12 -39l-63 -39l-4 -38h-29l-16 -41v-97l-31 -18l-23 2v-41h-24l-12 -37l-39 -18 l30 -27l-4 -27l-74 -24l25 -23l-16 -24l12 -27l-64 -57l27 -23l-4 -20l-27 -8l39 -41v-43l-18 -21l24 -22l7 -52l-25 -14v-47h-1055v240l-49 18l-74 -10l2 10h-18l-20 31l36 753z" />
<glyph unicode="D" horiz-adv-x="1509" d="M102 330l844 -332l461 -2l-14 1272v237l-1067 15l-13 -211l-16 -43l-25 -4l-26 28l-41 10l-35 -10l-8 -24l16 -39l-8 -97l18 -81l-16 -21l6 -67l39 -66l8 -47l56 -49l-62 -41l-31 -41l7 -66l-13 -43l-26 -28l-21 -11v-20l8 -35l-2 -31l41 -18l6 -41l-18 -35h-41z" />
<glyph unicode="E" horiz-adv-x="1722" d="M102 1382l2 -34l54 -45l24 -54l-8 -57l14 -49v-31l84 -88l39 -63l-20 18l-4 -43l10 16l59 -45l11 11l-11 45l19 2l33 -21l20 19l16 -19l33 19l-10 -19l22 17l25 -19l-31 19l-6 -19h-67l-11 2l-20 -2l-4 -8l12 -31l19 -14l22 -49h-14l-37 26l-2 37l-19 -6v-47l31 -72 l27 -30h32l21 -23l-10 -37l-17 -4l13 -57l53 -54l35 -59l57 -43v-37l39 -10v-111l20 -12l134 -8l49 -25l26 -30l49 -17l46 4l18 -49l39 2l96 -65l37 -50l12 -73l19 8l4 -12l-17 4l17 -25l397 70l2 43l-31 14l-18 62l31 24l-4 76l57 70l-39 24l-51 90l-817 684l-6 346l-2 197 h-574l-2 -37l10 -18l15 -45l-25 -123l12 14l-24 -24zM668 221l20 -4v4l-12 6zM698 217l15 -24l20 12l-4 12h-31zM743 227l23 -18l39 12l-4 6l-39 -2zM803 86l20 -8v6l-12 2h-8zM952 121l27 -25h16l-4 17zM954 51l21 -43l16 -2l-30 45h-7z" />
<glyph unicode="F" horiz-adv-x="2338" d="M102 18l1094 -22l1040 22l-53 1133l-10 377l-1016 -17l-995 21z" />
<glyph unicode="G" horiz-adv-x="2408" d="M102 115l86 -144l52 27l20 -21l66 35l8 -12l20 41l35 -2l146 92l67 35l39 -12l37 45l14 -9l51 35l25 -28l33 14l82 63l47 11l110 131l7 -45l22 -29h88l74 14l57 -16l33 20l65 17l72 -29l23 8l14 -16l61 45l97 -14l24 18l-20 14l14 33l-47 64l55 -27v-55l66 -41l72 43 l30 -17l11 41l94 -22l28 63l54 -53l82 39h90l28 -14l-16 -25l35 12l16 103l27 35l10 163l-16 762l-1084 4l-2 -32l-47 -4l-6 36l-207 13l-553 24l-80 -1151l70 -118z" />
<glyph unicode="H" horiz-adv-x="860" d="M102 1444l64 -1444h561l6 8l25 -8l-13 184l-30 -53l-27 25l-76 -23l19 23h-19l15 16l63 23l19 14l-45 24h26l-14 46h43l12 -15l2 -55l10 43l-10 121l-6 18l-76 6l-127 138l-6 69l-45 82l-22 14l-13 109l4 98l-24 66l-27 37l-29 6l-81 158l22 63l-6 43l-37 37l12 47l39 18 l51 74l13 45l43 39l-58 35l-96 2l-88 -39z" />
<glyph unicode="I" horiz-adv-x="1863" d="M102 1591l48 -47l-11 -41l17 -14l-39 -45l57 14l27 33l-8 27l24 -29l10 37l13 -15l-11 -12l27 -18l-66 -23l95 12l37 -4l20 27l20 -2v-12l41 12l17 -10l8 -25l-29 14v-14l-10 14l-14 -12l-37 8l98 -34l74 -41l-8 26l-19 4l19 11l14 -13l29 13l6 -11l-41 -18l35 -21l16 9 l2 -33l21 6l-15 -8l-49 35l70 -70l8 -18l-8 -33l-19 47l13 -35l6 -12l74 8l32 16l-4 -12l84 39l29 -4l4 4v8l-25 10l2 9l23 -9l-12 15l45 16l8 -12l35 8l73 -45l29 -51l33 -17l-4 -32l39 -29l39 -64h57l14 -49l19 -22v-27l-17 2l17 -20l-10 -68l-44 -141l27 -53v12l-16 26 l33 -30l20 41l-31 16l13 8h-9v13l33 -15l2 -35h17v27h10l8 -27l-49 -69h4l-16 -2l12 -10h-21l7 -7l-17 13l8 -13l27 -18l2 -29l55 -114l35 -11l-27 62l27 -27l45 17l-29 -23l5 -92h26l8 26l25 13l-47 -58l26 -6v15l7 -15l14 -92v12l12 -30l21 -6l-21 -19l25 8l61 -28l39 -68 l8 -45l54 -33l-21 -6h8l-22 14l-10 13l-17 -25l8 -18l19 -17l47 21l35 -8l49 22l2 -12l12 -6l-2 12l-10 4l12 2l10 -14l-6 14l23 31l8 65l29 72v-35l24 262l-24 82l-39 27l26 -8v-4l-32 80l-9 45l-75 176l-33 104l24 -10l-2 -37h37l-8 -96l45 -90l-35 90v45l15 16l-25 45 l-63 103l-72 186l-31 172l-24 16v21l16 -25v45l-121 27l-14 -12v-96l-25 -3l-18 52l-576 51l-26 72l-563 24zM166 1456h10l152 8h8l-37 6zM618 1270l17 -13l8 13h-25zM643 1255l12 -8l15 6l63 37l-69 -35h-21zM737 1290l13 2l10 11zM1087 1120h7l-2 8l-5 -6v-2zM1167 688 l21 -26v2l-14 24h-7zM1167 1016h7v4h-7v-4zM1167 1024h7l-7 6v-6zM1257 502l7 10l-7 12v-22zM1274 463l10 -19l27 -6l-19 6zM1276 500l18 -39l6 -6l-8 43zM1358 -41h18v8l-14 -6zM1376 -41l21 8l-13 2zM1384 295l5 -4l8 4h-13zM1399 -33l28 17l-6 10l4 -10l-14 2zM1421 291 l4 2v2l-4 6v-10zM1427 -4v-10l9 8l-2 2h-7zM1427 291l11 -8v10h-4zM1438 -6v-6l6 -2v8h-6zM1444 276h18l-10 15l-8 -6v-9zM1452 6l10 -22l2 2l-4 12zM1509 -2l19 -2l8 2v6zM1518 158l8 -4l2 4h-10zM1526 565l61 62l29 -25l10 -31l-18 -73l-37 18zM1528 145h6l2 9h-8v-9z M1536 -2l25 8l2 14zM1575 23l14 2v8zM1602 961l22 -74v49l2 35l-2 12zM1624 51h2l8 8zM1638 59h7l47 56l26 49l-26 -17v-16zM1671 795l37 -109l25 -59l-41 131zM1722 178l2 4l7 8l2 5zM1733 248h4v10h-2z" />
<glyph unicode="J" horiz-adv-x="1546" d="M102 1540l95 -698l22 -97l37 -77l-6 -29l26 -23l-38 -36l-37 -117l28 -94l-22 -121l22 -33l4 -39l37 -88l766 -59l21 -66l37 2l12 70l-8 51l18 29l137 -37l-8 47l12 -2l-4 22l15 17l-17 10l17 10l-17 23l25 -23l4 37l-10 -18l-13 18l11 -4v31l8 2l14 -25l29 37l-16 23 l-46 16l62 -10l-16 30l16 -12l31 53l-37 -18l6 14l-16 6l36 17l-12 14l23 -24l6 37v10l-2 -10l-27 -7l12 17l-22 18l51 -8l21 31l-33 6l14 10l-8 8l41 -10l12 10l-10 13l10 12l10 -6l19 16l-88 43v64l-17 53l-59 45v43l-35 100l-67 37l-7 27l-22 10l4 18l-25 17v37l-71 45 l-25 57l-84 66l-43 69l-43 96l-47 15l-37 37l-47 37l8 36l58 60zM1257 135l11 -49v23l12 53z" />
<glyph unicode="K" horiz-adv-x="2799" d="M102 1436l9 -43l61 59l6 45zM303 1505l164 -82l45 181l-109 2zM1028 1272l80 -135l53 41l139 -60l-12 88l-82 78l-28 59zM1501 1032l275 33h-84l-164 31zM1608 936l39 -78h45l14 66zM1776 940l139 -166l199 70l-115 106l-117 -20l-47 67zM1786 752l20 -13l47 4l-12 43z M2095 365l74 -355l112 -73l416 313l-196 229l-185 80l-135 59l23 -135z" />
<glyph unicode="L" horiz-adv-x="2093" d="M102 1063l25 -35l12 -57l23 -10l14 -119l53 -78v-35l21 -35l-10 -106l30 -6v-23l25 -8l-19 -51l31 -8l-18 -41l20 -15l-10 -43l16 -67l-12 -64l25 -29v-24l526 -16l684 20l74 -82l35 -2l-11 70l74 43l21 69l43 54l-11 55l-43 39l21 78l92 14l80 37l24 26l9 60l34 31 l11 81l-6 27l-72 53l-12 47l-58 37v19l-20 59l-92 21l-21 24l-33 148l27 61l-33 16l-20 58l-742 -8l-786 10l14 -49l-14 -54l24 -10l11 -35z" />
<glyph unicode="M" horiz-adv-x="1230" d="M102 20l512 -20l514 -2l-10 577l-53 60l-21 -27l9 -22l-131 4l-23 -25l-57 8l-19 -28l-22 22l-25 74l-31 2l-18 19v34l-43 68l-14 67l-25 23l-53 -49l-41 22l10 31l-10 16l27 23l-17 66l10 6l23 112l-41 -4l-14 23l-19 -8l-80 131l-61 43l10 10l-10 16l4 35l-51 74 l12 225l-151 10l-37 -602l30 -110l39 -39l19 -37l-74 -131l-4 -33l-64 -88v-43l35 -10l17 -21l-31 -78z" />
<glyph unicode="N" horiz-adv-x="1126" d="M102 965l4 -76l25 -86l133 -135l25 -111l16 -10l37 22l66 -32l-11 -66l-45 -90l2 -35l56 -61l45 -19l96 -86v-43l12 -41l-12 -37l24 -63l29 -16l-8 18l10 4l25 -31h10l-12 27l43 47l112 -47l19 6l-8 90l92 31l-17 43l27 39l-12 18h12l-12 21h12v47l23 8l-17 4l23 23 l-19 18l15 23l18 -9l25 54l26 12l-4 18l37 62l-6 55l-35 49l21 27l-9 35l23 8l-2 711l-68 151v78l-624 10l43 -45l4 -35l53 -43l-8 -80l-60 -88l-57 -28l-76 -4l-16 -54l26 -34l7 -43l-52 -89l-55 -28l2 -55l-24 -11z" />
<glyph unicode="O" horiz-adv-x="1300" d="M102 -4l27 -27l-23 -8l48 -12l14 18l-6 29l6 10l37 -14l41 4v-29h16l12 25l-2 33l13 -23l49 10l86 -45l12 -20l35 55l65 31l13 -31l41 -10l-2 -12l10 -11l12 27l23 8l2 47l20 10l-2 33l13 -18l32 20l-22 17l35 -15l8 -39l69 -45l39 29l8 63l27 46l21 -9l36 19l21 61l25 4 l32 39l-12 68l63 6l27 -16l78 43h45l4 39l-29 8l19 28l-19 35l19 15l-4 1091v21l-641 2l-62 -33l-75 -21l-41 9l-3 22l-10 -10l-22 22l-23 -989l-28 -14l4 -49l-21 -37l41 -68l-6 -35l12 -51l-53 -76l2 -32l-39 -13l2 -14l-28 -53l-7 8l-12 -16l-12 8l-19 -29l19 -26 l-31 -27l21 -8l-23 -11v-61z" />
<glyph unicode="P" horiz-adv-x="2502" d="M102 190l1153 -24l1145 18l-26 828l-70 28l-25 64l-59 57l37 76l29 2l-29 64l-37 -17l-66 53l-997 -12l-1003 27z" />
<glyph unicode="Q" horiz-adv-x="2379" d="M102 350h25v25h-25v-25zM143 350l400 -20l-8 69l67 -22l1176 -39l174 61l18 37l53 21l54 82l90 53l110 92l-49 12l-78 86l-71 121l18 31l-4 63l-63 54l-19 59l-41 -10l-33 -35l-45 -6l-61 37l-53 -25l-41 41l-101 23l-24 71l-35 27l-57 -8l-25 26l-39 -32l14 -29l-14 -21 l27 -8l-13 -41l-32 6l-70 -34l-18 18l-54 -8l9 -60l-48 -32l-22 -54l-51 -12l-29 -88l-35 -18l-55 32l-8 33l-27 15l10 -19h-30l2 -25l-23 -10v-33l-28 -32l-52 51l-59 -25l-29 -43l-78 56l-45 -13l-14 25v-41l-14 -10l-8 26l-33 -10l-35 23l4 -33l-12 -19l-25 9l-37 -50 l19 -61l-119 -31l-4 -30l16 -62l-16 -22l-111 59l-53 -12l-33 -37l13 -41l-7 -78l-24 -55l-43 22z" />
<glyph unicode="R" horiz-adv-x="2035" d="M102 1151l72 -86l2 -82l33 -29l-8 -16l35 -41l-9 -23l25 -49l18 -6l-4 -35l19 -22l-25 -12l14 -25l-14 -55l-59 -99l12 -39l-16 -40l12 -41l-4 -78l-29 -35l12 -37l-14 -25l-31 -6l-4 -12l17 -33l45 21l49 4l133 2l176 -72l139 -26l90 20l13 16l-27 -6l-12 29l14 12 l-26 -10l-11 27l23 4v-15l55 39h45l-2 -43l78 13v-41h29v-45l49 10v-17l47 -16l10 53h8l-8 -57l51 -51v-29l-10 -6l-6 35l-18 2l-3 14l-24 -24l-16 8l6 -21l12 -14l74 -25l22 15l4 -21l45 -18l15 24l20 -8l-10 -18l16 -6l37 24l2 -12l8 43l15 -6l-6 35l41 -9l12 29l22 -47 l17 27l18 -29l13 12l6 -71l45 26l22 33h-12l-4 20l29 9l-13 20l4 -8v39l-63 35l10 26l16 -22l11 6l61 -33l25 -4l2 12h16l-8 -16l25 -4l6 -25l-27 -18h49l23 10l8 -35h53l-12 -4l39 -63l20 16v27l8 -21l9 10l-45 -96l36 51l17 9v16l45 -41l-4 16l10 21l8 -8l-2 22l8 -16 l19 26l-27 2l29 9l-10 14l-39 6l12 16l-31 31l-18 -14l-10 14l-37 6l12 13h-65l2 26l-58 23l-26 43l49 -4l-31 35l76 -31l-12 22h-23l-2 19l18 12l17 29l26 -27l25 10l-12 19l14 20h-23l9 13l-13 -9l-8 13l21 8l-29 12l29 29l-19 -4l-20 12l-31 -27l-10 -47l-25 -8l-18 21 l6 12l-41 -2l-8 24l16 17l27 -6l24 43l-8 8h-14l12 -8l-22 -17v27l-19 -27l-33 17l-36 -39l-56 -13l-84 23l-18 27l10 26l76 72l47 -10l27 -37l84 -13l12 -26l41 8v-10l22 14l-16 10l-39 90l-45 50l-18 45l36 127l-667 -9l28 27l-26 82l41 8l10 49l-10 37l33 29l24 104 l88 76v53l23 2l39 62l-64 65v43l-24 35l34 23l-34 20l30 62l-30 20l-3 17h-976zM799 176l69 -45h15l28 43l-73 25zM1186 -35l12 -4h12l-10 4h-14zM1247 -43h6l29 8l8 6zM1339 -27l19 -8h18l-16 6zM1358 33l2 6l6 8h-6zM1399 -35l20 8l-10 7zM1481 139l37 -12l-5 12l-32 11 v-11zM1513 33l27 14l-8 8l-19 -14v-8zM1542 59l2 -4l8 8h-2zM1696 250l10 12l10 -12v12l-14 14zM1710 410l4 -2v6zM1741 381l35 2l10 -12l14 10l-14 12l-10 6l24 25zM1747 276l22 -14v23l-20 -6zM1749 322h2l10 12l8 14zM1769 326h15v8l-15 -2v-6zM1794 143l10 4h8v11z M1837 164l6 4l8 16zM1888 227l8 4l11 19l2 8zM1909 383l22 -49l-14 -68l14 19l2 41l-2 30z" />
<glyph unicode="S" horiz-adv-x="2867" d="M102 727l23 -25l502 -30v-25l30 4l7 21l1009 -21l13 -116l22 -11l12 -110l68 -72l12 23h35l45 69l-57 -123l43 -14l8 -150l16 15l-10 18l29 -10l12 29l14 -29l-26 -20l26 -3l68 23l35 100l45 -39l-4 37l32 29l27 -12l21 43h18v57l45 -31l6 25l17 -14l-23 -48l4 -100 l-28 -49l135 31l63 80l21 -23l96 33l-4 -39l67 51l177 16l6 121h-39l10 62l35 -17l-49 138l-58 69l-75 47h-50l-18 -28l53 -43l12 36l50 -14l28 -153l21 47l37 -25l-25 -6l23 -92l-23 -25l-164 -69l-65 -11l39 17l-95 14l-73 47l-21 21l-12 120l-55 19l-60 55h25l12 53 l25 -49l-19 -4l37 4l-113 217l-114 82l24 -57l-71 -19l-2 35l-29 9l10 26l-35 -6l-6 25l23 8l-29 18l12 12l37 -12l-12 23l31 -23l-2 78l53 -6l-21 37l58 28l-11 27l-26 -14l12 26l131 49l80 54l-20 57l-41 -27v-36l-15 20l-43 6l-8 19l21 4l-64 37v32l43 -32l-27 63l-55 45 h39l-2 55l-39 -10l-45 12l-106 -65l-50 -4l-45 -64l-75 -51l-1428 64zM2089 -6l49 -41l76 41l119 6l-6 53l-46 15l27 16l-12 27l-31 -25l6 29l-49 -19l-70 -84zM2339 31l35 -31l6 6l-6 66zM2540 -74l129 -30l73 18l-41 115l-22 14l12 -27l-33 -63l45 39l-18 -39zM2697 195 l17 4l28 80l-12 22z" />
<glyph unicode="T" horiz-adv-x="2572" d="M102 1010l107 65l104 109l29 10l43 -18l84 75l20 49l17 -20l-8 -25l90 -32h57l21 20l-13 12l27 11l-14 14l84 10l49 45l22 -2l90 -67l62 2l8 -17l-23 -12l13 -31l10 15l8 -29h27l-19 -35l31 -18l-4 -43l98 -41l49 -37l7 -23l-29 -36l33 -50l94 -24l20 -43l70 -33l35 41 l72 -76l-62 -57l4 -57l-47 -27l-14 -39l-29 -12l6 -19l-33 -12l-16 -61l16 -58l45 4l23 54l14 -35l23 45l78 -129l24 -8l2 16l-20 63l29 -24l28 -82h80l57 -76l5 23l22 -17l2 49l25 -69l55 -37l-8 72l-35 55l4 43h-41l-27 41l-57 37l-33 82l-4 94l25 -127l102 -100l37 8 l-6 41l-64 86v119l-22 28l37 58h-29l-6 28l35 10l-35 43l53 -20l-67 86l14 12l45 -55l31 16l-58 45l52 -14l-23 74l-14 -10l-72 69l23 12l79 -47l21 21l-31 14l-20 37l39 -37l-15 39l33 -2l21 29l-39 26l47 2l20 -57l19 21l-13 24l15 68l14 -78l78 65l-29 25l21 45l47 4 l26 25l-36 -92l92 79l-29 -49l27 -35l-49 11l-43 -56l92 -16l-148 -6l-28 -33l-50 -110l29 -82l21 59l57 12l-55 -57v-37l-37 -4l-41 20l-17 -98l17 -10l-4 35l45 39l35 -21v-29l14 13v-15l22 -12l-36 -43l16 -16l20 16l-2 -26l-34 -3l-54 46l-37 -107l23 8l14 66v-47l31 34 l10 -55l15 21l10 -33l24 6l-22 -23l35 5l8 -25l29 -14l34 39l-6 -31l-41 -27l-61 19v22l-66 -8l17 -18l-19 -25l45 16l13 -8l-37 -35l-6 -36l-15 22l-20 -20l55 -105l8 55l97 -110v53l20 33l16 8l2 -12l-24 -29l22 -41l58 111l-25 -99l43 -24l-57 -27l-4 -39l75 15l13 -2 l-45 -41l57 16l-74 -86l23 4l-6 -43l43 27l73 -2l13 20l129 23l14 41l41 22l16 84l29 12l-8 -20l20 8l29 55l10 19l-24 8l2 29l-25 12h37l-2 16l14 7l-331 -7l-54 863l-1820 12h-125zM1915 307l12 -12h27l-12 22zM1931 162l23 -12l8 26l-20 35l14 -35zM2363 211l31 25 l51 153l-47 -92zM2447 416l11 6l12 70h-6z" />
<glyph unicode="U" horiz-adv-x="1335" d="M102 791l13 -742l39 -59l-4 -31l18 -35l10 10l17 -8l41 99l59 45l-12 6l10 26l37 13v20l-23 12l15 5l16 38l57 35l-8 -10l16 8l-22 -39l27 31l-15 -39l33 27v22l14 -65l13 16l-13 96l-12 -10l-2 8l29 31l2 -115l16 35l-10 -8l-6 23l37 53l-7 -27l7 -12l-7 -25l17 -4v-14 l2 51l18 29l-4 -72v25l10 -25l37 86v-31h23l-8 -12l26 25l-10 -31l20 6v21l39 22l-2 31l35 71l-14 37l51 23v35l14 -13l-18 -51l22 15l13 -13l-31 -16l-4 -21l22 4l58 -32l-10 65l22 4l6 -8l-6 37h14l5 -35l14 27l24 -8l-4 30l23 -22l4 22l6 -26l6 14l13 -8l16 -60l22 31 l-16 27l16 10l11 -35l8 33l2 -35l18 70l11 6v-27l18 27l2 -39l14 27l21 -15l8 45l33 -14l2 21l10 -25l14 14l-14 29l23 6l10 -35l4 11l25 -3l55 68l-25 27l6 -25l-8 23l-24 -29l-13 39l23 -8v22l16 -4l6 12l-34 76l-31 8l-16 -16l-37 39l8 45l-21 43l21 18v21l-47 10l-60 37 l11 76l-13 456l-53 54l-80 53l-33 -29l-24 11l-100 -52l-17 17l-22 18l-7 62l-47 10l-209 -289l-14 -108l-31 -27l-28 -53l8 -29l-16 -25l-3 -36l13 -21l-41 -49v-31l-51 -22l-37 -58l22 -39l-20 -6l-27 15l-24 -74l-25 45zM702 319l5 -22l20 -8l6 18zM756 338h22l-10 20 l10 9l-12 16zM829 397l29 -30l12 8l-8 22h33l6 17l-29 35l-24 -9z" />
<glyph unicode="V" horiz-adv-x="1835" d="M102 1399l37 -15l21 -49l198 -67l50 -29l65 -6l80 -29v-37l59 -39l-14 -86h43l-16 -49l22 -30v22l109 143l22 68v-68l23 17l22 37h43v-31l-14 8l-21 -37l21 -12l20 41l31 16l23 37l63 -8l8 14l52 9l22 26l103 -18l55 -45l16 51l23 -14l14 8l117 -8v8l-37 26l6 15l-41 14 l12 8l-34 72l-45 -21l-15 21l-35 -12l-45 12l15 82l-109 -29h-125l-100 -74l-23 21l-22 -12l-23 26l-41 -14l-30 8l-52 88l-30 21l-64 8l-37 -21l29 35l-49 -31l-15 -26l7 65l-15 15l8 22l-22 6h-8v31l-66 -59l-28 -8l-60 -37l-72 -9zM467 1561l37 -15l-15 -16l15 -21l43 66 l51 35l-14 14l57 8l-20 15l-91 -15l-63 -49v-22zM795 2h442v-14l285 14l57 86l-8 23l16 53l51 35v43l23 16l-8 14l35 7v-37l22 22l23 117l-58 225l-22 43l-43 29l-66 -29l-28 -20h14l-31 -60l-14 9l-29 -37l-51 28l16 80l49 23l15 59l37 21l8 131l-37 57l6 23l31 -15l-23 72 l-116 59h-37l-21 35l-59 14l-37 31l-57 -8l8 -6l-31 -31v-35l17 -22l20 -6l-88 -37l-8 -80l-27 -72l8 72l-22 -66l-8 21l14 104l-51 -73l-23 6l-26 -23l-9 -41l-36 -22l8 -88l-60 -80l23 -80l-23 -51l37 -111l23 8l-17 -14l17 -66l6 -86l-37 -125l-57 -108zM838 1376l8 -20 h12zM946 940l8 -6l9 6l-9 8zM969 956h14v15l-14 8v-23zM997 1065l15 -23v9l-8 6zM1049 1110l22 -8l8 49h-16zM1071 1174l8 -15l6 8l-6 7h-8zM1260 1167l28 -22h17l-9 22h-36zM1288 1210h23l-15 9h9zM1319 1356l20 -35h7l-7 29l7 20l-13 6zM1333 1305l21 -15l-8 15l-7 16z M1399 1219l63 -15l15 23l-41 26l6 -14zM1579 111h8v30z" />
<glyph unicode="W" horiz-adv-x="1644" d="M102 1573l21 -103l-10 -32v-111l45 -151l-4 -172l10 -21l-6 -80l37 -139l-9 -88l-57 -68l29 -45l28 -14l17 -25l-21 -512l533 -12l538 2l-12 113l-20 32l-56 17l-90 100l-41 10l-18 29l-39 10l-47 45l12 45l-10 39l10 19v39l16 43l-16 39l-27 2l-6 34l43 60l80 53v164h12 l25 41l113 90l127 143l233 115l-43 6l-24 -8l-41 33l-115 -17l-27 43l-71 -51h-62l-20 10l-9 25l-47 14l-16 31l-39 -6l-4 -23l-12 -6l-25 60l-39 4l10 22l-57 21l-55 6l-37 -10l-10 -17l-49 -2l-23 31l-137 29l-19 16v25h-24l-27 30l-53 -26l-6 37zM502 1602l24 12l9 26 l-5 17l-28 2v-57z" />
<glyph unicode="X" horiz-adv-x="2064" d="M102 1524l17 -17l8 -73l49 -31l14 -78l86 -63l41 10l21 -27v-33h-31l-41 -65l58 -60l14 -63l63 -25l-49 -966l1309 -27l29 -45l-2 -31l-70 -61l-19 -47l191 2l33 53l-25 43l41 4l-22 25l30 20l-12 62h18l9 -37l28 63l47 -18l23 65l2 80h-16l-23 39l-16 -6l8 -27l-27 17 l-47 78l31 49l-31 55v45l-115 103l-55 22l-67 72l-5 45l68 176l-86 51l-31 -26l-22 -3l-25 41l-22 101l-160 162l-25 55l-18 113l25 73l-82 88h-633l-484 35z" />
<glyph unicode="Y" horiz-adv-x="1249" d="M102 260l564 -14l-31 -105l14 -41l39 -39l31 -90h35l6 19l33 20l-13 13l11 12l26 -23l111 33l-33 4l16 10l52 -32l45 14l36 -29l21 17l-25 526l107 1040l-25 29h-47l-555 6l10 -31l-51 -32l-10 -33l-23 -2l-8 -102l-26 -17h-25l-4 -29h-10l-19 -26l-20 -19l18 -32 l-63 -23l14 -22l-6 -17l4 -24l-53 -45l22 -13l-6 -20l-16 -4l31 -35l-21 -51l21 -15l8 -39l-25 -18v-43l27 -18l-27 -54l25 -24l-29 -21l21 -26l-7 -35l62 -51l-39 -60l-23 -4l7 -41l-80 -61l-29 -88l-29 -25l13 -29l-13 -43l-37 -10l23 -74zM844 -18l18 -11l8 15v4z M897 -27h2l12 7zM961 -10v-4l63 -6l-45 10h-18zM1040 -18l4 -9l13 7z" />
<glyph unicode="Z" horiz-adv-x="2338" d="M102 1112l52 -82l-2 -37l10 -20l-19 -8l68 -54l92 -151l16 12l17 -24h45l-45 -132l16 -65l-28 -33l-5 -49l41 -27l62 52l35 -25l8 -76l47 -80v-41l49 -28l29 -80l28 -25l13 33l69 -10l33 24l141 -8l-8 25l25 28l57 -69l2 131h652l634 29l-16 245l-59 785l-1014 -31 l-1024 47z" />
<glyph unicode="a" d="M102 610l340 -10l203 64l365 -31v-27l34 17l39 -58l2 -41l314 -14l305 -317l53 30l94 -20l27 39l-8 63l16 -31l-4 -55l53 131l52 49l45 19l-19 31l19 12l-15 37l31 -35l-18 -19l20 -10l49 41v27l12 -27l54 19h55l-22 8l26 14l14 -31l5 39l30 -26l64 77l-25 21l10 -16 l-36 -15l2 45l-11 -35l-22 5l8 -19l-25 19l-32 -29l-58 24l-37 58l87 -53l61 45l-4 20l-31 -4l53 37l-135 49l-26 35l127 -43l-15 43l49 6l-30 -14l26 -35l19 24l16 -38l4 18l55 -18l35 22l37 80l12 -23l29 23v63l-33 50l4 -15h-20l8 -18l-18 14l-15 -12l-8 -82l-31 14l31 4 l-26 31h18v64l-63 -5l6 -14l-45 19l-82 -15l8 19l-21 41l5 65l16 -12l-8 -35l8 -45l29 -14l75 30l-45 41l68 -39l-19 43l35 -30l29 12l-37 51l76 -49l-17 47l50 -76l-37 117v-20l-15 12v8l-16 14v27l-1126 -16l-408 34l-14 -86l-49 -12l-50 -67l-41 18l-98 -63l-20 34 l-47 -47l-23 13l-31 -54l-49 -10l-94 -61l-109 -11l-34 -30l-19 -49l-61 -11zM1855 193l15 -5l12 27l-20 -12zM1896 272l5 2l10 27l-6 -4zM1964 367l31 28l49 23l-31 -6l-33 -27zM2111 463l76 18h37l-14 4l-45 -4zM2236 481l27 -18h6l-10 12zM2273 453l35 59l49 61l-53 -57z M2376 584v8l26 18h-12zM2398 1112l8 -16h19l-4 16h-23zM2406 614l29 19l39 26l-57 -30zM2431 1112l20 -82l37 -92l-8 -2l57 -78l-57 115l-24 63zM2480 907l21 -33l10 -4l-10 35zM2484 655l53 15l13 39l10 84l-23 63l15 -72l-6 -90z" />
<glyph unicode="b" horiz-adv-x="2265" d="M102 193l1035 -25l1026 29l-19 147l-59 125l4 113l-21 26l-20 240l-78 207l-16 157l10 43l-35 138l-895 -21l-878 25z" />
<glyph unicode="c" horiz-adv-x="2297" d="M102 625l478 -21l-9 -311l820 -6l804 28l-26 15l-15 63l-43 17l-16 63l-41 64l-6 145l-16 12l12 27l-23 6l7 35l-21 12l2 17l-20 4v75l-70 117l-16 98l-23 5l-31 10l-16 41l-100 28l-39 33l-131 -10l-37 -27l-115 62h-647l-633 22z" />
<glyph unicode="d" horiz-adv-x="1058" d="M102 111l2 -29l41 -66l539 -18l47 33l27 39h33l67 45l53 -4l45 106v10l-22 -4l6 15l-39 49v53l-72 94l13 107l-66 1063l-6 32l-33 -37l-67 31l-58 -41l17 -14l-56 -131l11 -66l-56 -98l39 -96l-20 -10l-6 -35l-33 -41l-78 -66l-59 -4l-27 -37l-6 -112l-29 -62l8 -18 l-38 -58l-13 -61l-43 -41l-12 -70l-31 -32l-6 -164l-16 -25l-17 -158l-20 -22z" />
<glyph unicode="e" horiz-adv-x="1083" d="M90 317l90 -110l17 18l16 -35h37l39 -55l20 -39l49 19l23 -19h51l19 -55l-37 -53v-72l37 14l57 41v17l51 53l-33 18h33l19 56l53 55h-53l20 20h33l37 52v-17l-17 -35l76 35l-20 35h-23v39h43v70h16l33 -35l-16 35l90 108v58l37 90l-19 18l19 16l-19 19l33 16v41l25 -41 l-39 -159h14l25 178v39l32 143v92l-14 -16l-76 35h-37l-34 16v55l34 70l37 57v-35l58 35l18 53l33 91l18 57l-436 252l-51 -17l-39 -34l-37 -111l-51 -55l-55 -51l32 -76l-16 -56h-33l-20 -34v-127l53 -19l39 -90h18l15 -35l127 -147l-15 -19l-94 -51l-90 -76h-16l16 -34 l-33 -37l-96 -19l-51 -16l-72 -145l14 -39v-35h-14v-17zM684 276l23 -16h36l33 39h-33l-16 -39zM797 352l20 17l51 73l19 76z" />
<glyph unicode="f" horiz-adv-x="1581" d="M102 -2l189 -8l8 123l395 -15l-16 15l-21 47h822l-4 1341h-650l-653 25z" />
<glyph unicode="g" horiz-adv-x="1275" d="M102 866l971 -929l8 47l-14 71l-18 131l32 13h37l33 -27l12 4l11 33l-21 1327l-510 -4l-506 22z" />
<glyph unicode="h" horiz-adv-x="2359" d="M102 537l1201 -48l22 -45l49 -20l2 -78l19 -39l67 -26l13 -25l217 -131l-21 98l15 19l16 -107l-35 -112l23 36l32 4l-4 17l47 45l-22 37l67 43l-20 24l12 293l64 240l-6 291l-11 26l-28 -18l-4 14l14 64l-21 100l29 66l10 75l-20 62l2 123v20h-389l-105 -51l-116 -98 l-41 -76l-133 -88l14 -35l24 16l23 -10l-23 -26l39 8l-43 -56l-4 19l-16 -19l20 -75l6 6l-2 -27l-22 -24l-41 4l-78 -68l-59 -10l-8 -21l-105 23l-59 -14l-43 36l-166 25l-189 -33l-2 -65l47 -21l-14 -26l10 -72l-43 -23l-32 -49l-172 -102zM328 889l12 -10l16 20l-26 12z M1063 1212l14 13l4 2v12zM1100 1323l24 6l-6 4l-14 -4zM1128 1346l5 -17l16 17l12 10zM1602 -53l49 30v21l-31 -4zM1657 -2l10 -27l35 9l-6 14l20 8l21 -14l-47 -21l94 13l-37 8l297 75l-25 -14l238 113l-70 -27l-18 21l-2 -15l-37 2l-37 -47h-47l102 86l-26 4l-76 -61 l-135 -8l-29 -21l-51 15l10 -19l-20 19l-11 -21l-36 2l-9 -29l-18 23l-4 -27l-6 7v-17l-47 -4zM1790 -12l45 4l45 16l-27 -6zM1866 -2v-4l39 8l100 47zM2208 233l6 -4h4l14 15z" />
<glyph unicode="i" horiz-adv-x="1628" d="M102 299l35 20l31 -30l57 10l49 -39l31 -84l43 -22l37 4l35 -8l51 -58h23l8 19l35 12l53 -23l18 -24l51 4l41 43l43 14l27 -67l43 -25l33 -49l90 12l14 62l39 10l-12 74l51 92l19 8l18 -12l16 -49l23 34l22 -4l-6 41l-16 21l22 6v31l25 43h33l8 30l31 27h16l18 -27l48 23 l114 100l11 43l-11 23l23 43l-4 22h16l4 66l41 102l-8 27l8 47l-22 43l49 27l-15 571l-266 -115l-123 -100l-94 4l-135 -49l-31 6l-43 35l25 -27l-60 19l-41 -19l-43 17l115 18l-49 35l-12 -23l-33 2l-31 35l-121 47l-430 -4z" />
<glyph unicode="j" horiz-adv-x="2301" d="M102 1118l725 -26l-8 -578h25l55 -61l64 -4l12 28l43 -45l2 -26l115 -31l32 8l25 -27l37 21h61l4 -37l33 -6l8 -39h21l51 39l51 -53l55 24l19 -55l16 45l37 27l43 -31l39 14l2 -14l66 -43l14 16l82 41l41 -6l43 31l27 -27h34l35 31l62 -31l28 -29l99 -30l-9 518l-53 338 l-4 151l-1008 -14l-1015 31z" />
<glyph unicode="k" horiz-adv-x="1605" d="M102 489l27 -47l-8 -71l10 -56l25 -28l661 -15l629 11l-23 440l15 47l-6 21l14 16l-16 22l-37 2l-4 27l26 84l31 41v27l57 137l-18 43l-35 16l-23 39l-356 -10l-14 -14l-82 -7l-109 -47h-65l-45 -22l-43 -2l-23 18l-86 6l-78 -37l-77 25l-23 98l-37 29h-14l-21 -8l-16 2 l-16 20l-33 -10l-13 4l-14 -2l12 -12l-4 -8l-2 14l-28 14l8 -45l-10 -20l-2 -43l8 -23l10 4l-14 -26l14 -19l-10 -4l-4 17l-4 -25l8 -8l-15 -19l2 -43l-18 -77v-45l8 -7h-8l-8 -39l10 -12l-8 4l-8 -28l-21 -144l12 8l11 -8l-15 6l-10 -20l-22 -62l24 25l6 -27l-12 11 l-16 -31l-2 18l-9 -6l-16 -69z" />
<glyph unicode="l" horiz-adv-x="1990" d="M102 281l1358 -7h113l20 35l33 17l51 -11l90 37l7 29l114 86l-78 94h-16l-16 57l-35 5l-2 49v24l26 17l13 30l-25 50l55 55l48 82l24 10l-12 35l-76 22l-22 37l-13 94l-47 21l-6 22l-25 21h-1325v106l-108 -55l14 21l-43 -33l-90 -39z" />
<glyph unicode="m" horiz-adv-x="1216" d="M102 231l121 23l238 84l63 4l66 -23l14 7l88 186l2 35l-2 94l-30 68l47 69l8 35l-23 72l-35 18l35 33l31 -10l25 -25l32 66l-12 22l-31 35v141l27 -49l22 -86l29 -24l37 -21l12 62l21 -11l-33 -121l12 -47l45 11l35 28l6 58l-41 71l-75 60l-29 30l8 172l-55 11l-17 227 l-575 -10l2 -924l-16 -186l-17 -8l-18 -41zM420 -45l6 -23l16 -14l41 4l33 23l-24 49v59l-25 8v-47l-35 -18zM723 512l10 -12l33 35l18 106v55l-28 17l-23 -95l17 -16l-25 -24zM788 489l13 -8l35 31l26 -8l51 61l45 -14l-6 18l6 203l21 98l-68 -57l-16 -68l-41 -49v-39 l-23 -47l23 -49l-57 -33zM993 764l23 -154l-8 -32l20 -64l86 82l-8 149l-16 27l16 98l-90 33l-19 -59z" />
<glyph unicode="n" horiz-adv-x="2166" d="M102 1305l76 -52l49 -57l76 -20l51 -142l47 -59l15 -43l123 -94l39 -82l47 -19l51 -51l4 -55l35 -29l-4 -22l30 -25l4 -27l103 -59l8 -55l39 -90v-58l86 -71l29 -82l-13 -64l35 -51h31l47 -27l43 107l4 -21l-18 -47l59 51l-47 52l-29 110l31 -24l12 -66l33 -29v78h10 l9 -96l71 31l15 43l-48 -31l37 35l-55 16l47 10l-86 9l2 12h60l-5 22l64 -43l12 29l15 -24l51 38l-23 33l35 -28l70 20l-6 18l30 5l31 24l4 19l-43 20h16l-8 35h23l-6 -27l34 -20l99 80l8 10l-16 -10l-9 10l17 39l26 12l13 -22l43 10l8 24l31 23l-19 24l27 -16v21l20 -13 l15 21l-48 57l29 55l14 17l-30 -64l22 -8l13 -39l20 99l78 114l72 66l77 35l-12 16l12 4l-450 442l-461 13l-2 67l-59 74l-48 -23l-4 43l-534 27l-6 8l-17 -20l-102 -23l-27 -26l-149 -33l-82 -86zM1747 459l8 18v8l-8 -8v-18z" />
<glyph unicode="o" horiz-adv-x="1871" d="M102 381l605 -19h616l104 -63l35 31l127 4l35 -27l92 -33l21 -34l32 -7l-16 41l-22 25l30 113l-4 26l-20 2l10 47l-16 33l30 2l-24 537l-25 28l-33 7l-30 55l43 49l16 51l-774 -14l-782 22z" />
<glyph unicode="p" d="M102 608l1028 -33l687 7l10 84l59 10l19 57l34 29l115 24l88 70l53 10l19 60l33 -8l49 47l16 -35l101 71l38 -12l48 72l49 10l12 94l-563 -20l-1172 12l-63 19l2 -68l-391 12l-17 -20l-18 20l4 -39l-27 -14l19 -29l-39 -2l22 -37l-28 -38l10 -54l-25 11l9 -29l-66 -33 l8 -65l-61 -58l12 -80z" />
<glyph unicode="q" horiz-adv-x="2097" d="M102 918l9 -29l165 -178l62 -39l68 -170l157 -107l35 -8l43 47l25 86l41 4l12 17l24 -11l107 -6l14 -35l17 5l82 -78l59 -142l31 -30l37 -62l49 -24l10 -92l37 -43l20 -68l41 -4l101 -45l79 -4l48 -37l4 18l28 15l-8 10l-6 -6l4 14l-18 2l-43 119l12 12l-12 17l16 45h-49 l18 4l-18 28l22 -28l19 20l-8 -24l16 6l27 65l-43 33l51 -6l24 47l-18 -18l-6 24l24 14l9 -18l6 29l-6 -29l8 4l18 19l-2 34l21 -20l32 18l-20 2l10 13l-22 32l26 -8l-4 -18l10 10l2 8l-8 17l6 -2l7 -15l26 8l8 -8l-12 -8l33 14l-33 -34l72 45l-31 -11v2l76 37l37 37v21 l41 26l-15 13l-20 51l24 -6l19 14l-8 -39l53 10v-4l-37 -14l-6 -25l98 64l29 8l-12 22l30 41l-12 84l31 80l-58 88v35l-34 31l-17 264l-49 -6l-123 63l-16 -18l-31 6l-29 -12l-18 6l-55 -33l-45 27l-21 -8l-20 14l-31 -39l-8 33l-33 -21l-33 29l-35 -16l-26 41l-56 -19 l-12 19l-78 12l-32 35l-7 -8h-30l-54 30l-2 324h-407l-23 -760zM1452 90l4 -53l43 -121l-37 180l-6 -2zM1456 100l23 52l8 20l20 43l-28 -43zM1511 215l21 29v14l-6 -2zM1532 252l20 22l45 23l-51 -23zM1604 313l22 11l-12 -9zM1786 438l45 43h-10v-6z" />
<glyph unicode="r" horiz-adv-x="1425" d="M102 6l611 -10l610 10l-31 1219l-463 -6v303l-598 6l-86 4zM375 1307l16 14l-16 61l10 11l-10 12l37 10l20 15l19 -15l-9 -43l21 -20l29 -4l20 -68l16 10l-10 68l27 -4v-17h51l-10 -16l-33 2l-18 -20l14 -3l35 -61l41 -31l-45 -28l-15 -31l-37 -27l-14 6l-20 72l-13 -33 l-18 33l-31 21l-2 55l-14 27l-17 18l-14 -18zM481 1229l2 -10l4 6l-4 6zM518 1272l17 -12l-7 16zM553 1208l16 -28v30l-16 31v-33z" />
<glyph unicode="s" horiz-adv-x="2355" d="M102 360l914 -55h528l520 6l-4 15l21 -15v62l33 -62l-39 119l-84 10l4 -30l-21 10l-39 -10l15 30l-47 29l-7 45l-16 -10l-59 24l-15 19l-14 -8l-49 10l4 14l53 -20l8 14l19 -29l20 29l33 -43l23 10l61 -75l27 10l10 28l-16 2l6 13l-21 26l-39 11l-69 77l4 7l86 -84l22 8 l-18 12l8 39l37 -41l4 59l-39 7l25 14l-62 20l-106 140l-49 24l18 4l31 -24l112 -139l11 16l41 -21l-11 70l25 -10v28l-72 35l-18 41l-35 -2l-53 21l-31 34l14 7l-6 18l-82 -18l19 8l-23 20l15 -10l18 76l16 -2l4 20l25 15v49l-55 47l-58 24l13 31l-29 27l-43 6l-31 -55 l-119 90l-20 -90l-111 -117l-32 18l-74 -137l-55 19l-7 30l-28 13l-39 -107l-125 -184l14 -21l-18 -35l-41 -28l-19 14l-55 -24l-29 10l-6 -29l-90 -20l-37 28l-55 -39l-88 56l-6 53l-96 -78l-88 -45l-54 -74l-51 -10l-18 -31zM2064 559l17 -55l14 24l8 -14l15 88l22 16 l-10 5l10 14l12 -19l15 13l41 121l14 34l-68 -6l-24 -32l18 -21l-30 -10l-4 -41l-29 -23zM2085 319l8 -8h2v13zM2105 532h13l2 7v18zM2138 588l2 -4l8 18l4 2zM2214 741h10l8 7l21 49z" />
<glyph unicode="t" horiz-adv-x="1189" d="M102 627l7 -29l32 39h23l33 -51l-27 -531l18 -41l412 -18l-39 74l-6 32l16 70l25 25l22 174l17 35l8 180l27 41l14 78l47 49l19 69l41 66l-11 16l35 78l4 123l33 45l61 4l93 72l38 51l5 37l20 6v14l-47 103l12 45l51 67l-12 56l14 28l-931 -8l4 -45l-23 -61l23 -50 l-25 -116l43 -125l-22 -64l4 -84l-29 -32l-29 -99l35 -200z" />
<glyph unicode="u" horiz-adv-x="2260" d="M102 1012l11 -60l73 -137l7 -110l28 -66v-98l25 45l26 -29l45 -12l-59 -21v-24l-25 28l11 -69l53 2l33 -25l-19 -2l-14 12l-4 -38l-17 10l11 -29l-6 -31l24 -18l-20 6l-13 -18l-20 96l-19 -137l25 12l39 -25l45 19l23 -17h43l36 -40l50 10l36 -23l45 -61l17 -127l123 -33 l129 57l139 -8l33 -33l65 9l74 32l107 4l77 39l76 15l25 20l125 13l24 18l570 22l-25 37l12 25l-12 37l-29 41l-47 1003l-694 -20l-746 4l3 -12l-17 -9l14 -8l15 -69l24 14l21 -10l12 -68l-6 -6l-27 12l21 -49l-21 12v-12l-14 21l-18 -7l6 -26l6 -10l20 12l9 -25l36 -28v-25 h-30l2 -41l37 -29l-27 41l6 29l19 -6l2 -51l41 -25l-31 -31l-25 -55l-10 -53l25 -23l-2 -12l-19 2l21 -82l-27 -37l-27 21l-12 -41l-41 -41l-24 24l-9 -12v12l-12 -41l-8 33l-21 -20l21 37l-37 -33l16 16h-16l4 4l25 13l45 82l8 -87l12 66l25 25v-13l-15 -28l31 -17l17 99 l-13 24l-32 -20l12 20l-15 17l3 12l24 -29l-14 60l14 -19l12 21l21 4l-16 59l-19 14l10 -49l-16 13l-37 -70l-49 -25l-45 -77l16 -9l58 25l-62 -33l-24 4l86 148l-5 28l9 -16l8 25v-62l51 74l-43 78l4 22l-29 -8l13 -29l-13 -18l-10 43l-30 -23l-33 41l12 13l-37 -25 l-172 25l-196 94l16 -25zM264 358l12 -6l5 13l-9 16zM506 1167l8 -41l41 -14l-4 25l-25 37zM530 1313l13 4l4 4h-17v-8zM547 1186l4 -19l4 13l12 -15l17 2l-9 39l21 -39l16 23l-24 20h-21zM555 643l16 -20v32l4 13zM565 1120l27 -24l-4 18l-8 39zM600 614l12 -12l9 12l-9 9z M608 1024l23 -31h14l12 -63h21l20 -31l4 41l-30 27l-10 -33l-9 74l-35 16l31 31l23 -8l-19 40l-20 -4zM618 977l3 -37l10 14l-10 17zM618 1155l13 -10l2 8l-12 14zM625 1210l24 -24l-6 12l-18 21v-9zM649 782l23 -12v12l-15 41zM662 680l16 25l6 -5l-10 -20l28 16l-16 13 l-8 36l-12 -20z" />
<glyph unicode="v" horiz-adv-x="1724" d="M102 1110l33 -2l21 -53l-29 -45v-60l-12 -18l12 -53l-18 -64l55 -51l49 -10l27 -39l47 -17l41 -36l32 -66l39 -35l64 -18l29 -33l10 -70v-94l10 -37l29 -20l-21 -56l21 -131l20 -30l82 -21l12 -51h758l2 104l-35 86l-4 86l49 160l-10 84l23 60l37 36l-17 46l49 172 l-28 28l-33 -14l-45 -68l-41 -41l-17 -4l-16 13l49 122l49 29l13 41l-33 29l10 69l-51 -4l18 43l-2 70l-22 22l-55 15l4 28l-25 27l-88 25l-76 4l-69 37l-252 67l-27 64l-39 10l-6 18l-41 4l-45 35l-6 -22l-39 -11l45 103l-12 18l-17 11l-20 -11l-37 -28l-25 10l-49 -37 l-94 -29l-43 -4l-33 33l-30 -39h-17l-4 -209l-18 -16h-19l-74 -41l-45 -74v-47zM586 1606l8 -4l6 8l-6 6zM629 1526l18 8l37 20l-4 13zM637 1591l18 -8v8l-12 8zM666 1583l26 -6v10l6 8zM709 1610l16 6v22zM1489 862l18 -24l39 47l-2 14l35 47l-14 15l14 -5l-2 37l16 4 l-4 15h-12l-23 -35l-30 -12l-6 -43l-27 -33zM1593 1030h27l2 23l-20 2z" />
<glyph unicode="w" horiz-adv-x="2084" d="M102 436l60 -88l-4 -18l67 -127l68 -60l59 -16l-10 -33l55 -88l70 -41l41 -4l80 66l47 -47l137 34l14 47l41 -22l82 45l33 -23l59 43l-4 27l35 25l-28 30l34 64l80 92l35 88l43 43l61 156l39 -13l13 -41l88 -28l108 209l49 -27l45 68h27l37 30l59 84l7 52l30 92l189 -150 l34 94l-6 45l-22 13l16 26l-22 -4l-4 25l-9 -17l-8 27l17 6l-7 17l-49 -9l-78 54l-38 -35l-56 -8l6 -13l-12 -6l6 -14l-10 -12l-84 10l-27 10l4 19l-14 10l-12 -33l-55 -55l-35 12l-23 -6l-67 -78l-76 -49l4 252h-395l6 454l-55 -18l22 -70l-10 -39l10 -32l-51 -119l-8 -72 l-19 -4v-26l-26 -50l14 -24l-21 -43l-131 -109l-55 -26l-18 30h-21l-28 -30l-17 -35h-37l-24 -45v-33l-29 -12l18 -72l-22 8l-29 -37l-16 58l-23 16l-20 -10l-62 -107l7 -82l-37 -10l-23 -72l-96 -8l2 -86z" />
<glyph unicode="x" horiz-adv-x="2162" d="M102 53l957 -47l1001 -8l-8 741l-10 740l-938 8l-901 47z" />
<glyph unicode="y" horiz-adv-x="1546" d="M102 1098l252 -213l58 -76l264 -166l45 -410v-276l723 739l-875 877z" />
<glyph unicode="z" horiz-adv-x="2523" d="M102 1036l15 -16l2 -21l-2 -14v-14l-2 -10l20 -31l8 -19l-4 7l-6 -13l6 6l15 -20l2 2v14h6l8 -8l8 6l2 -6l13 4l-7 -6l9 2l-7 -6l-18 6l-2 4l-6 -4l-2 -2l2 -4v-4l4 -2l4 -21h-2l-12 13v10h-4l-5 -12l7 -25l8 -8l8 -4l2 -6l-2 -11l-8 -4l4 -14l12 -21l4 -18l17 -14 l-2 -13l8 -6l-6 -31l8 -8l39 -8l12 -10l4 -10l14 -9h13l4 -16l10 -2l25 -27l6 -16v-18l6 -5v-2l-6 2l4 -6l111 -6l-9 -10l168 -86l131 -10l4 24l82 -6l9 -14l10 -8l26 -31l19 -12l14 -25l-4 -12l8 -17l23 -20l12 -2l19 -13l10 -2l8 9l6 2v6l8 22h17l2 9l10 -7l31 -2l6 -10 l4 2l2 -4l8 -4l17 -21l2 -8l12 -24l2 -13l12 -6l10 -20l17 -10l2 -27l10 -14l8 -23l15 -2l6 -6h12l10 -8l27 -4l16 -11v4l11 5v6l-5 -4l3 4l-7 2l-2 12l-6 8h4l-6 17l-4 2v2l4 -2l-4 8h4l2 14h-14l4 2l8 4v-2l-4 -2l6 2l8 21l-8 4v2l-6 2l18 -2l7 14l-4 -6l-7 6l4 6l7 2 l2 -6l4 4l6 2l-4 11h4v2l4 -8l12 8h-6l2 4l-4 2l-4 8l10 -2l-2 -6l2 2l2 4l-2 4h2l4 -4l9 2l-2 -2h4l-4 -4l10 4l-10 -8l22 12l-10 -4v2l16 4l21 17l-2 8h2l14 10l-6 4l4 2l-6 2v6l-2 4l8 -2l4 4l2 -2l-2 -10l14 4v-4l-12 -2l-2 -6l31 18h12l-6 9l6 8h6l-4 -8h-4l2 -7l29 7 l26 -9l19 -2l14 4h-6v7l-2 -2l-2 6l16 2v-6l11 4l4 -13l6 2l6 -4l4 9v-9l8 -10l-2 -2l-6 8l-4 -6l22 -6v4l5 -6l6 2l4 8h4v6l4 -8l2 6l4 -4l2 -8l10 12v6l-12 2l2 7l12 -7h7l2 -4l-2 -2l8 2v-4h10l4 -8l4 4l-6 -14l8 12l4 -6l6 8l-6 4l-4 6v-2l-8 2h-8v2l-10 11l4 2l-2 2 l10 -2l-8 6l6 4l6 -2h2v4l-6 2l4 4h-4l4 6h-6l-8 -14l-9 8l7 2l2 6l-4 -2l-7 2l-6 -6l-8 -2l-10 2l-2 6l10 11l29 -11l6 2l6 11l4 -2l16 8h-4l11 -4l8 4l4 -4l4 6l12 -6l2 24l7 -6l2 -8h2l6 -10l-13 -4l19 4h2l-2 6h8v8l4 -2l-8 -8l8 2l8 8l-4 6l6 -6l5 8l2 -2l-2 -2l8 -4 l-15 -4l19 4h8l2 8l6 -2l8 2l4 -4h-4l-14 -4l21 -2l20 -8l-8 8l6 2l2 -2l4 6v-4l-4 -4l6 -6l4 2l2 -6l-10 6l16 -12l2 -11l-4 9l2 -7l2 -2l17 4l6 7v-7l14 13h9v4l-9 2l6 -2l-4 2l11 8h10l16 -8l8 -8l7 -2v-9l22 -16h10l11 -12l4 -25l-4 -35l6 -8v6l-6 2l8 -6l2 12l-6 3l4 4 l4 -4v-5l6 5l4 -5l-10 -16h-2v-6l-2 4v-4l8 -2l16 -27h7l-7 8l7 -2l10 4l-6 -4l6 -22l10 14l-8 -14l8 -2l4 -21l8 -2l-2 -4l6 2l13 -4l14 -22l12 -4l-4 -5l2 5h-6l-2 2l-2 -2v-5l4 -4l10 4h9l6 7h10v24l4 14v-8l-4 56l-8 20l-8 2h6v-2l-13 16l-2 9l-24 32l-6 23h4v-8h8 l4 -21l10 -18l-10 20l2 13l-8 8l-19 22l-24 39l-10 29l-7 6v2l3 -2v8h-3l-2 8l2 5h-4l4 2l-4 6l4 -2v2h-4l2 6l2 -2l7 8l-11 2h7l-3 4l3 -2l6 10l-6 -6l-3 6l7 4l-4 2l6 -6v6h-6v3l-3 4h9l4 4h-6v2h8v6l6 2l-6 4l6 10v-8l4 8l-8 4l-4 13l4 -4l4 -9h2v9l2 -11l8 4v5l-6 -5 l6 7h-8l4 4h-6l4 2l12 -2l2 4l-2 4l4 -4l9 6l4 4l-4 2v6l4 -6l12 12l-2 6l10 3v2l2 2l2 6l-4 2v6l2 6l-2 -8l4 -4v12l15 21l14 12h18v16l2 -2v-12l5 22l8 11l6 6l-2 2l2 4l-2 -4h4l6 8v2l2 -2l17 4h-3l3 6l6 -6l-4 6l6 -2l6 8v9h-2v-2l-4 -4v4h-6l4 -4l-6 4l-3 -7h-12l-6 9 l14 -6l9 10v2l-5 -2l9 8l-25 4l-6 4l22 -2l-4 6l9 2l-5 -2l5 -6l4 6l2 -6v2l10 -2l8 19l6 -5v19l-8 4v-4h-6v-14h-6l6 2l-6 4l2 2v8l-8 -2v-4l-6 4l-15 -6l-4 20l2 -2l2 -10l6 -2l11 6l-9 2l13 -2l-4 6l6 -4l4 4l-6 8l12 -6l-4 6l10 -12l-10 21v-7l-4 9l-2 2l6 -2l-2 4 l-2 -2v8l18 -35l10 -6l-14 20l-10 15l-8 18h-15l2 -6h-6l-4 -2v4l-8 6l-2 4l-2 -2l-12 2l-2 2h-11l11 4l4 -6l4 6l6 -6l4 2l10 -8l6 2l-6 10h-6l-14 11v4l16 -13h4l-4 9l6 -4v10h-6l4 2l-10 2l-23 20l-8 2h2l6 -2l23 -20v2l8 -2l-2 14l2 -2v4l-12 4l-4 7h-15l-8 8l-6 -6h-6 v20l8 4l-2 8h2v-10l-6 -8v-10h4l6 8l8 -12v10l5 -10h8l6 -5v5l8 -5l-6 11l-12 6l-4 12l2 -10l14 -4l-12 20v8l-2 3h6l-8 6h4l-2 4l-7 2h9l-4 6l4 -2l-2 2l2 4l-2 2h6v-2l2 8v-6l6 6v4l6 4l-4 -6l6 6v-4l2 -2h-4l-4 -6h8l-12 -4l-4 -10l6 -6l6 6l-4 -6h-8v-9l6 7l6 -4l-4 -3 l4 -6l-8 4v-10l2 6l10 -6l2 4l-2 -6h-10l2 -2h4l-4 -4h-2l8 -8v4l6 -8l4 8v-4l2 8v-8h4l-4 -6h9l-2 -11l10 2l-4 -2l4 -2l-4 -4v-8l-4 -6v-16l4 -7l2 7v12l6 4l4 33l8 14l-2 4l2 2l2 -4l-2 14l-6 -4l4 4l-4 5l4 -3v7l-14 4l-19 35l6 14l9 4l4 8l-2 -8l-11 -8l-6 -10l2 -7 l21 -12l12 2v-14l6 4l6 18h-4l7 4l-3 5v2h3v6h4l6 10v4h2l-2 27l-4 12v-6l-13 4l2 8l5 4l4 15l-9 16l5 -4l4 -8l-4 -19l4 4l6 4l2 11l20 16l6 8l19 2l6 4l-4 2l6 -2l6 4l23 9v22l6 -2h2l2 2l-2 -6l2 -8l6 6v-4l6 4v4h2l2 8h6v-10l7 6l20 10l-2 9l-8 8l-10 -2h10l2 -4h2v-6 l-8 -5h-10l-3 9h-8v4l2 -2l-8 6l-8 4h2l-2 -4l-4 4l2 2v6h2l-2 6l10 6v2l-2 -4l-4 2l-6 7l2 18l2 -2v12l8 12l-2 5l6 2l-6 2l8 14l2 -4l4 8l5 -8l-3 10l-2 2l2 4l5 -14l-2 8l2 6v-6l6 -2l6 14v-6l4 4v-6l4 2l2 25l-2 2l4 6v4h2v-10l2 4l-2 -6l15 -2l-7 10h7l-3 6l5 -6l4 6 l-4 2l6 -2v2l6 -8v12l4 -6v6l2 -6v10l4 -2v4l2 -4v2h6v5h2v4l2 -4v10l4 -6l5 2l6 12l-6 2l-5 -6l-2 6l7 4l-9 8l-4 -2l-8 2l-4 19h-14l-23 69l-18 9h-6l-19 -17l-6 4l-2 8h-6l-21 -47l2 -14l-4 -14l4 -13l-2 -12l-6 -10l-4 -4l6 -4l-8 -2v-9l-6 2l-6 -4h-4l-4 -6l2 -10 l-134 -33l-10 -10l-14 -18l-4 -13l-19 -16l4 -6l7 4v-4h4l-8 -8l8 -9l-2 -6l-9 -4l-16 -18l-27 -4l-20 2l-37 -15l2 -8l6 -2l4 -12l-24 -27l-29 -24l-37 -25l-16 -14l-10 -2l-17 -7l-10 3l2 -3h-18l16 5l-8 2l-6 -2l-21 4l10 18l-2 4l2 10l9 9v12l4 4h4v-8l6 2v22l-14 43 l-11 11h-6l-14 -9l2 -2l-6 -12l-8 -4l-11 4l2 14l9 7l4 8l4 6v25l-8 10v4h6l-6 8l-29 10l-8 8h-10l-13 5l-6 -2l2 -3l-4 -14l6 -4l-14 -8v-14l-4 -13v8l-6 -8l-2 2l2 19l-6 -15h-7l-4 -2v-10l-6 -2l2 -16l-8 -21l2 -12l-2 -10l12 -19l2 2v-2l6 -14v-27l-12 -33l-14 -12 l-8 -6l-15 10l-12 23v31l-10 10l-2 12l8 25l-2 10l8 16l-2 6l4 27l-4 4l-10 -4l-8 -16l-5 2v4l7 14l6 6v6l18 31l2 14l2 -14l4 10l13 4l-6 -14l4 -4l12 23h14l11 2l2 8l22 -2l8 -6l4 12l7 -4h2l20 4l-6 8l-8 2h4l-8 12l-11 -6l-4 4l-4 -4l-10 4l2 15l-20 -8l-25 -5l-19 -14 l-6 2l-2 -2l-4 4l-18 -2l-8 12l-9 5h-14l-4 -7l4 9l-10 -13v13l-12 12l-9 -12l-14 -9l-18 -6l-25 -14l-14 4v-2l-4 -2l4 14l-2 2l-21 -8l-20 -6l-6 6l47 45l43 23h-9l-6 -2l-6 8l-24 -6l-5 8l-14 -10h-10l-23 14l-6 -4l-4 -4l-4 10h-10v4l-21 2l-20 -4l-2 4l-31 4l-2 8 l-10 7l-10 -7l-5 7l-143 -7l-143 2l-142 7l-149 10l-232 29l-227 41l-2 -3l2 -12h10v-8h-6l2 -6l-6 4l-2 -2l6 -2l6 -8l-4 -4h-2v-7l2 -4l-2 9l2 2l6 -13l-12 -8v-25l-4 -2l-4 2l-2 -4l-6 -6l-4 6l-2 -6l-4 6l-3 -4l7 4h-9l15 11v-11l6 11v-2l-4 -5l4 -2l6 13v2l-8 -2l2 6 l2 -4v6l4 4h2l-2 10v-6l-8 -8h-8l-9 -10h13l-13 -2l-2 2l17 16v-2l10 8l-6 8l2 5h-4v-7l-2 7l-2 -5l-4 11l-6 -4l-27 8l-27 18l-2 -20l8 -19v-37l5 4l8 -8l-8 -2l2 -4l-7 6v-10l13 -4h-6v-12h-2v-2l-5 16l-6 -20l17 -3l8 -2l6 -8l-6 6h-14l2 -2l-9 4l2 -8l-8 -14l2 -4h4 l-6 -4l2 -6h-2v2l-12 -35v-12l-6 -7l4 -2l-6 -6l-8 -33h2l-7 -2l-6 -10l6 4v-6l-2 2l-4 -4l-2 2l-14 -24l4 -11l-4 -16v-14l4 -7l-4 -10l4 -6v-12l-8 -19v-6l-6 -10l6 2l-6 -8l-2 2l-11 -12v-11zM213 672l2 -8l8 2l-2 2zM225 672l6 -8l15 2l-4 2h-11zM233 625l9 -4l-2 2 l-4 2h-3zM246 1450l4 -2v2l-4 6v-6zM250 1456l4 -4v6l4 -6l2 4l-6 6zM254 1386l6 5v4h-2zM254 1399h4l2 6l-2 4zM254 1436l6 -6v-9l6 -4l2 4l-6 4l-2 -4l2 11l-4 4h8l-4 8zM262 1458l4 -6v4zM276 604l3 -10l6 -2l-6 12h-3zM279 627l6 -2v-7h8l-4 5zM1249 197l11 -37l-11 45 v-8zM1249 219l4 14l4 9h-4zM1264 254l8 12v2l-2 -2zM1272 266l8 6l12 9v4l-16 -13zM1305 1409l2 -12l6 2v6zM1352 326l18 12h-4zM1479 1284l4 2l6 2l-4 2zM1483 1292h6v4zM1499 358l6 -4h4l2 4l-8 7zM1536 1346l10 4h-2l12 8l3 8l-21 -14zM1559 334h6v4zM1563 1313h6l2 2v-4 h-2l2 -6l6 12l8 8l-2 4l12 2l-4 2l-18 -4l-10 -12v-4zM1622 397l8 -4v8zM1622 1204l4 -8l8 16v7h2l-2 4zM1638 1286h4l-4 4v-4zM1645 399l4 -16v10zM1688 1245h2l2 8h-2zM1716 420h2l31 8h-6zM1729 1262l4 -2l4 2l-4 2zM1733 1298l8 -8v13h-4zM1755 1276l10 -4l2 6l-8 6v-4z M1823 397l2 -4l4 4l14 9zM1970 1155l2 -2l4 -2v4h-6zM1985 258l6 -8l-2 8h-4zM2025 147h7v5h-2zM2032 152l4 2h-2zM2036 281l12 14l8 -2l2 -6l-2 -15h-8zM2038 162l6 -8v4l-2 2zM2038 367l6 -13l-2 11l2 8zM2058 334l13 -21l8 -10zM2075 1245l2 -2l2 2v4zM2079 178l8 15l4 8 l-4 -2v-2zM2122 707l2 6l-2 -2v-4zM2140 727l10 4l9 2h-2l-9 -2zM2177 754l4 2l2 2h-2zM2177 913l4 2l4 25zM2183 758l6 6l4 6l-10 -6v-6zM2185 809l6 -4l-2 4h-4zM2193 770l9 2l2 8l-2 13l-7 8l7 -23zM2193 1063l5 8v2l-5 -2v-8zM2198 1004h4l2 6zM2198 1073l4 -2l8 4 l-2 -4l10 4l-6 -2l43 21l-6 -2l32 26l-8 -8l-2 2v-2h-8l-2 -8l-10 -2l14 16l-14 -12l-39 -12v-7l-2 5v-7l-8 -4zM2204 1012v2l4 6v4zM2224 1077l6 2h-2zM2230 1077l6 2l13 13l-19 -13v-2zM2318 1143h4l9 4l-4 4zM2345 1145l10 2l-4 6v-6zM2355 1307l2 -4h4v2zM2361 1311l6 2 v2h-6v-4zM2372 1319l6 -2v6h2l-4 6z" />
<glyph unicode="&#xaa;" d="M102 610l340 -10l203 64l365 -31v-27l34 17l39 -58l2 -41l314 -14l305 -317l53 30l94 -20l27 39l-8 63l16 -31l-4 -55l53 131l52 49l45 19l-19 31l19 12l-15 37l31 -35l-18 -19l20 -10l49 41v27l12 -27l54 19h55l-22 8l26 14l14 -31l5 39l30 -26l64 77l-25 21l10 -16 l-36 -15l2 45l-11 -35l-22 5l8 -19l-25 19l-32 -29l-58 24l-37 58l87 -53l61 45l-4 20l-31 -4l53 37l-135 49l-26 35l127 -43l-15 43l49 6l-30 -14l26 -35l19 24l16 -38l4 18l55 -18l35 22l37 80l12 -23l29 23v63l-33 50l4 -15h-20l8 -18l-18 14l-15 -12l-8 -82l-31 14l31 4 l-26 31h18v64l-63 -5l6 -14l-45 19l-82 -15l8 19l-21 41l5 65l16 -12l-8 -35l8 -45l29 -14l75 30l-45 41l68 -39l-19 43l35 -30l29 12l-37 51l76 -49l-17 47l50 -76l-37 117v-20l-15 12v8l-16 14v27l-1126 -16l-408 34l-14 -86l-49 -12l-50 -67l-41 18l-98 -63l-20 34 l-47 -47l-23 13l-31 -54l-49 -10l-94 -61l-109 -11l-34 -30l-19 -49l-61 -11zM1855 193l15 -5l12 27l-20 -12zM1896 272l5 2l10 27l-6 -4zM1964 367l31 28l49 23l-31 -6l-33 -27zM2111 463l76 18h37l-14 4l-45 -4zM2236 481l27 -18h6l-10 12zM2273 453l35 59l49 61l-53 -57z M2376 584v8l26 18h-12zM2398 1112l8 -16h19l-4 16h-23zM2406 614l29 19l39 26l-57 -30zM2431 1112l20 -82l37 -92l-8 -2l57 -78l-57 115l-24 63zM2480 907l21 -33l10 -4l-10 35zM2484 655l53 15l13 39l10 84l-23 63l15 -72l-6 -90z" />
<glyph unicode="&#xba;" horiz-adv-x="1871" d="M102 381l605 -19h616l104 -63l35 31l127 4l35 -27l92 -33l21 -34l32 -7l-16 41l-22 25l30 113l-4 26l-20 2l10 47l-16 33l30 2l-24 537l-25 28l-33 7l-30 55l43 49l16 51l-774 -14l-782 22z" />
<glyph unicode="&#x152;" horiz-adv-x="3022" d="M1402 1382l2 -34l54 -45l24 -54l-8 -57l14 -49v-31l84 -88l39 -63l-20 18l-4 -43l10 16l59 -45l11 11l-11 45l19 2l33 -21l20 19l16 -19l33 19l-10 -19l22 17l25 -19l-31 19l-6 -19h-67l-11 2l-20 -2l-4 -8l12 -31l19 -14l22 -49h-14l-37 26l-2 37l-19 -6v-47l31 -72 l27 -30h32l21 -23l-10 -37l-17 -4l13 -57l53 -54l35 -59l57 -43v-37l39 -10v-111l20 -12l134 -8l49 -25l26 -30l49 -17l46 4l18 -49l39 2l96 -65l37 -50l12 -73l19 8l4 -12l-17 4l17 -25l397 70l2 43l-31 14l-18 62l31 24l-4 76l57 70l-39 24l-51 90l-817 684l-6 346l-2 197 h-574l-2 -37l10 -18l15 -45l-25 -123l12 14l-24 -24zM1968 221l20 -4v4l-12 6zM1998 217l15 -24l20 12l-4 12h-31zM2043 227l23 -18l39 12l-4 6l-39 -2zM2103 86l20 -8v6l-12 2h-8zM2252 121l27 -25h16l-4 17zM2254 51l21 -43l16 -2l-30 45h-7zM102 -4l27 -27l-23 -8l48 -12 l14 18l-6 29l6 10l37 -14l41 4v-29h16l12 25l-2 33l13 -23l49 10l86 -45l12 -20l35 55l65 31l13 -31l41 -10l-2 -12l10 -11l12 27l23 8l2 47l20 10l-2 33l13 -18l32 20l-22 17l35 -15l8 -39l69 -45l39 29l8 63l27 46l21 -9l36 19l21 61l25 4l32 39l-12 68l63 6l27 -16l78 43 h45l4 39l-29 8l19 28l-19 35l19 15l-4 1091v21l-641 2l-62 -33l-75 -21l-41 9l-3 22l-10 -10l-22 22l-23 -989l-28 -14l4 -49l-21 -37l41 -68l-6 -35l12 -51l-53 -76l2 -32l-39 -13l2 -14l-28 -53l-7 8l-12 -16l-12 8l-19 -29l19 -26l-31 -27l21 -8l-23 -11v-61z" />
<glyph unicode="&#x153;" horiz-adv-x="2955" d="M1962 317l90 -110l17 18l16 -35h37l39 -55l20 -39l49 19l23 -19h51l19 -55l-37 -53v-72l37 14l57 41v17l51 53l-33 18h33l19 56l53 55h-53l20 20h33l37 52v-17l-17 -35l76 35l-20 35h-23v39h43v70h16l33 -35l-16 35l90 108v58l37 90l-19 18l19 16l-19 19l33 16v41l25 -41 l-39 -159h14l25 178v39l32 143v92l-14 -16l-76 35h-37l-34 16v55l34 70l37 57v-35l58 35l18 53l33 91l18 57l-436 252l-51 -17l-39 -34l-37 -111l-51 -55l-55 -51l32 -76l-16 -56h-33l-20 -34v-127l53 -19l39 -90h18l15 -35l127 -147l-15 -19l-94 -51l-90 -76h-16l16 -34 l-33 -37l-96 -19l-51 -16l-72 -145l14 -39v-35h-14v-17zM2556 276l23 -16h36l33 39h-33l-16 -39zM2669 352l20 17l51 73l19 76zM102 381l605 -19h616l104 -63l35 31l127 4l35 -27l92 -33l21 -34l32 -7l-16 41l-22 25l30 113l-4 26l-20 2l10 47l-16 33l30 2l-24 537l-25 28 l-33 7l-30 55l43 49l16 51l-774 -14l-782 22z" />
<glyph unicode="&#x2000;" horiz-adv-x="831" />
<glyph unicode="&#x2001;" horiz-adv-x="1665" />
<glyph unicode="&#x2002;" horiz-adv-x="831" />
<glyph unicode="&#x2003;" horiz-adv-x="1665" />
<glyph unicode="&#x2004;" horiz-adv-x="555" />
<glyph unicode="&#x2005;" horiz-adv-x="415" />
<glyph unicode="&#x2006;" horiz-adv-x="276" />
<glyph unicode="&#x2007;" horiz-adv-x="276" />
<glyph unicode="&#x2008;" horiz-adv-x="206" />
<glyph unicode="&#x2009;" horiz-adv-x="331" />
<glyph unicode="&#x200a;" horiz-adv-x="92" />
<glyph unicode="&#x2013;" horiz-adv-x="1024" d="M205 512v205h614v-205h-614z" />
<glyph unicode="&#x2014;" horiz-adv-x="2048" d="M205 512v205h1638v-205h-1638z" />
<glyph unicode="&#x202f;" horiz-adv-x="331" />
<glyph unicode="&#x205f;" horiz-adv-x="415" />
<glyph unicode="&#x2122;" horiz-adv-x="3803" d="M2674 20l512 -20l514 -2l-10 577l-53 60l-21 -27l9 -22l-131 4l-23 -25l-57 8l-19 -28l-22 22l-25 74l-31 2l-18 19v34l-43 68l-14 67l-25 23l-53 -49l-41 22l10 31l-10 16l27 23l-17 66l10 6l23 112l-41 -4l-14 23l-19 -8l-80 131l-61 43l10 10l-10 16l4 35l-51 74 l12 225l-151 10l-37 -602l30 -110l39 -39l19 -37l-74 -131l-4 -33l-64 -88v-43l35 -10l17 -21l-31 -78zM102 1010l107 65l104 109l29 10l43 -18l84 75l20 49l17 -20l-8 -25l90 -32h57l21 20l-13 12l27 11l-14 14l84 10l49 45l22 -2l90 -67l62 2l8 -17l-23 -12l13 -31l10 15 l8 -29h27l-19 -35l31 -18l-4 -43l98 -41l49 -37l7 -23l-29 -36l33 -50l94 -24l20 -43l70 -33l35 41l72 -76l-62 -57l4 -57l-47 -27l-14 -39l-29 -12l6 -19l-33 -12l-16 -61l16 -58l45 4l23 54l14 -35l23 45l78 -129l24 -8l2 16l-20 63l29 -24l28 -82h80l57 -76l5 23l22 -17 l2 49l25 -69l55 -37l-8 72l-35 55l4 43h-41l-27 41l-57 37l-33 82l-4 94l25 -127l102 -100l37 8l-6 41l-64 86v119l-22 28l37 58h-29l-6 28l35 10l-35 43l53 -20l-67 86l14 12l45 -55l31 16l-58 45l52 -14l-23 74l-14 -10l-72 69l23 12l79 -47l21 21l-31 14l-20 37l39 -37 l-15 39l33 -2l21 29l-39 26l47 2l20 -57l19 21l-13 24l15 68l14 -78l78 65l-29 25l21 45l47 4l26 25l-36 -92l92 79l-29 -49l27 -35l-49 11l-43 -56l92 -16l-148 -6l-28 -33l-50 -110l29 -82l21 59l57 12l-55 -57v-37l-37 -4l-41 20l-17 -98l17 -10l-4 35l45 39l35 -21v-29 l14 13v-15l22 -12l-36 -43l16 -16l20 16l-2 -26l-34 -3l-54 46l-37 -107l23 8l14 66v-47l31 34l10 -55l15 21l10 -33l24 6l-22 -23l35 5l8 -25l29 -14l34 39l-6 -31l-41 -27l-61 19v22l-66 -8l17 -18l-19 -25l45 16l13 -8l-37 -35l-6 -36l-15 22l-20 -20l55 -105l8 55 l97 -110v53l20 33l16 8l2 -12l-24 -29l22 -41l58 111l-25 -99l43 -24l-57 -27l-4 -39l75 15l13 -2l-45 -41l57 16l-74 -86l23 4l-6 -43l43 27l73 -2l13 20l129 23l14 41l41 22l16 84l29 12l-8 -20l20 8l29 55l10 19l-24 8l2 29l-25 12h37l-2 16l14 7l-331 -7l-54 863 l-1820 12h-125zM1915 307l12 -12h27l-12 22zM1931 162l23 -12l8 26l-20 35l14 -35zM2363 211l31 25l51 153l-47 -92zM2447 416l11 6l12 70h-6z" />
<glyph unicode="&#xe000;" horiz-adv-x="1535" d="M0 1535h1535v-1535h-1535v1535z" />
<glyph unicode="&#xfb01;" horiz-adv-x="3209" d="M1683 299l35 20l31 -30l57 10l49 -39l31 -84l43 -22l37 4l35 -8l51 -58h23l8 19l35 12l53 -23l18 -24l51 4l41 43l43 14l27 -67l43 -25l33 -49l90 12l14 62l39 10l-12 74l51 92l19 8l18 -12l16 -49l23 34l22 -4l-6 41l-16 21l22 6v31l25 43h33l8 30l31 27h16l18 -27 l48 23l114 100l11 43l-11 23l23 43l-4 22h16l4 66l41 102l-8 27l8 47l-22 43l49 27l-15 571l-266 -115l-123 -100l-94 4l-135 -49l-31 6l-43 35l25 -27l-60 19l-41 -19l-43 17l115 18l-49 35l-12 -23l-33 2l-31 35l-121 47l-430 -4zM102 -2l189 -8l8 123l395 -15l-16 15 l-21 47h822l-4 1341h-650l-653 25z" />
<glyph unicode="&#xfb02;" horiz-adv-x="3571" d="M1683 281l1358 -7h113l20 35l33 17l51 -11l90 37l7 29l114 86l-78 94h-16l-16 57l-35 5l-2 49v24l26 17l13 30l-25 50l55 55l48 82l24 10l-12 35l-76 22l-22 37l-13 94l-47 21l-6 22l-25 21h-1325v106l-108 -55l14 21l-43 -33l-90 -39zM102 -2l189 -8l8 123l395 -15 l-16 15l-21 47h822l-4 1341h-650l-653 25z" />
<glyph unicode="&#xfb03;" horiz-adv-x="4790" d="M3264 299l35 20l31 -30l57 10l49 -39l31 -84l43 -22l37 4l35 -8l51 -58h23l8 19l35 12l53 -23l18 -24l51 4l41 43l43 14l27 -67l43 -25l33 -49l90 12l14 62l39 10l-12 74l51 92l19 8l18 -12l16 -49l23 34l22 -4l-6 41l-16 21l22 6v31l25 43h33l8 30l31 27h16l18 -27 l48 23l114 100l11 43l-11 23l23 43l-4 22h16l4 66l41 102l-8 27l8 47l-22 43l49 27l-15 571l-266 -115l-123 -100l-94 4l-135 -49l-31 6l-43 35l25 -27l-60 19l-41 -19l-43 17l115 18l-49 35l-12 -23l-33 2l-31 35l-121 47l-430 -4zM1683 -2l189 -8l8 123l395 -15l-16 15 l-21 47h822l-4 1341h-650l-653 25zM102 -2l189 -8l8 123l395 -15l-16 15l-21 47h822l-4 1341h-650l-653 25z" />
<glyph unicode="&#xfb04;" horiz-adv-x="5152" d="M3264 281l1358 -7h113l20 35l33 17l51 -11l90 37l7 29l114 86l-78 94h-16l-16 57l-35 5l-2 49v24l26 17l13 30l-25 50l55 55l48 82l24 10l-12 35l-76 22l-22 37l-13 94l-47 21l-6 22l-25 21h-1325v106l-108 -55l14 21l-43 -33l-90 -39zM1683 -2l189 -8l8 123l395 -15 l-16 15l-21 47h822l-4 1341h-650l-653 25zM102 -2l189 -8l8 123l395 -15l-16 15l-21 47h822l-4 1341h-650l-653 25z" />
</font>
</defs>
</svg>
