<?xml version="1.0" standalone="no"?>
<!DOCTYPE svg PUBLIC "-//W3C//DTD SVG 1.1//EN" "http://www.w3.org/Graphics/SVG/1.1/DTD/svg11.dtd" >
<svg xmlns="http://www.w3.org/2000/svg">
<metadata></metadata>
<defs>
<font id="SosaRegular" horiz-adv-x="2048" >
<font-face units-per-em="2048" ascent="1540" descent="-508" />
<missing-glyph horiz-adv-x="438" />
<glyph horiz-adv-x="0" />
<glyph />
<glyph unicode=" "  horiz-adv-x="438" />
<glyph unicode="&#x09;" horiz-adv-x="438" />
<glyph unicode="&#xa0;" horiz-adv-x="438" />
<glyph unicode="!" d="M854 -317q0 71 50 120.5t120 49.5t120 -49.5t50 -120.5t-50 -121.5t-120 -50.5t-120 50.5t-50 121.5zM854 1047q0 71 50 121.5t120 50.5t120 -50.5t50 -121.5q0 -17 -2 -25l-82 -999h-172l-82 999q-2 8 -2 25z" />
<glyph unicode="&#x22;" horiz-adv-x="561" />
<glyph unicode="#" horiz-adv-x="1409" />
<glyph unicode="$" d="M512 23h342q0 -47 22.5 -85.5t61.5 -62.5v326q-183 31 -304.5 174t-121.5 332q0 86 28.5 168.5t73.5 136.5q53 76 137 128t187 70v93h172v-93q183 -31 304.5 -172.5t121.5 -330.5h-342q0 96 -84 147v-326q183 -31 304.5 -173.5t121.5 -331.5q0 -86 -28.5 -169t-73.5 -137 q-53 -76 -137 -128t-187 -70v-92h-172v92q-183 31 -304.5 173t-121.5 331zM854 707q0 -47 22.5 -86.5t61.5 -63.5v297q-84 -51 -84 -147zM1110 -125q39 24 61.5 62.5t22.5 85.5t-22.5 86t-61.5 63v-297z" />
<glyph unicode="%" horiz-adv-x="1230" />
<glyph unicode="&#x26;" horiz-adv-x="1128" />
<glyph unicode="'" horiz-adv-x="141" />
<glyph unicode="(" horiz-adv-x="391" />
<glyph unicode=")" horiz-adv-x="587" />
<glyph unicode="*" horiz-adv-x="532" />
<glyph unicode="+" horiz-adv-x="970" />
<glyph unicode="," horiz-adv-x="327" />
<glyph unicode="-" horiz-adv-x="903" />
<glyph unicode="." horiz-adv-x="337" />
<glyph unicode="/" d="M598 -229v1484q0 71 50 120.5t120 49.5q65 13 256.5 13t255.5 -13q70 0 120 -49.5t50 -120.5v-1484q0 -69 -46 -118t-114 -52q-1 0 -4.5 -1t-5.5 -1h-512q-2 0 -5.5 1t-4.5 1q-68 3 -114 52t-46 118zM713 518h622v672h-622v-672zM895 213q0 -17 13 -30t30 -13h172 q17 0 29 13t12 30v170q0 19 -12 31t-29 12h-172q-18 0 -30.5 -12.5t-12.5 -30.5v-170z" />
<glyph unicode="0" d="M170 -45v426q0 139 43 269.5t122 235.5t184 184t235.5 122t269.5 43t269.5 -43t235.5 -122t184 -184t122 -235.5t43 -269.5v-426h-86v426q0 209 -103 385.5t-279.5 279.5t-385.5 103t-385.5 -103t-279.5 -279.5t-103 -385.5v-426h-86zM342 -215v682h127q54 0 91.5 -37.5 t37.5 -91.5v-426q0 -53 -37.5 -90t-91.5 -37h-127zM1450 -88v426q0 54 37.5 91.5t91.5 37.5h127v-682h-127q-54 0 -91.5 37t-37.5 90z" />
<glyph unicode="1" d="M170 -45v682q0 71 51 121.5t121 50.5h340l86 170q16 30 24 44t25 28t37 14h340q15 0 27.5 -6t23.5 -20t17.5 -26t17.5 -34l86 -170h340q70 0 121 -50.5t51 -121.5v-682q0 -70 -50.5 -120t-121.5 -50h-1364q-71 0 -121.5 50t-50.5 120zM639 338q0 -158 112.5 -270.5 t272.5 -112.5q159 0 271 112t112 271q0 160 -111.5 272.5t-271.5 112.5t-272.5 -112.5t-112.5 -272.5zM811 338q0 89 62 152t151 63t151 -63t62 -152q0 -88 -62 -150.5t-151 -62.5t-151 62.5t-62 150.5zM1536 553q0 -35 25.5 -60.5t60.5 -25.5t59.5 25.5t24.5 60.5 t-24.5 59.5t-59.5 24.5t-60.5 -24.5t-25.5 -59.5z" />
<glyph unicode="2" d="M86 723v256q0 35 24.5 60.5t59.5 25.5l172 -86h596q71 0 121.5 -50t50.5 -120h-598q-93 0 -171.5 -47t-123.5 -125h-47q-35 0 -59.5 25.5t-24.5 60.5zM342 125v342q0 71 50 120.5t120 49.5h854q70 0 120 -49.5t50 -120.5v-342q0 -71 -50 -120.5t-120 -49.5h-854 q-70 0 -120 49.5t-50 120.5zM512 381q0 -35 25.5 -59.5t60.5 -24.5t59.5 24.5t24.5 59.5t-24.5 60.5t-59.5 25.5t-60.5 -25.5t-25.5 -60.5zM1661 637h45l172 172q35 0 59.5 -25.5t24.5 -60.5v-512q0 -35 -24.5 -60.5t-59.5 -25.5l-172 172v170q0 94 -45 170z" />
<glyph unicode="3" d="M170 -45v682q0 71 51 121.5t121 50.5h1364q70 0 121 -50.5t51 -121.5v-682h-172v342h-1364v-342h-172zM512 125h1024v-512h-1024v512zM512 979v170h1024v-170h-1024zM1536 553q0 -35 25.5 -60.5t60.5 -25.5t59.5 25.5t24.5 60.5t-24.5 59.5t-59.5 24.5t-60.5 -24.5 t-25.5 -59.5z" />
<glyph unicode="4" d="M176 487q0 18 0.5 49.5t5 121.5t12.5 173t26 185t42 176q14 56 60 92.5t104 36.5h172v-428l-172 -84v-684l172 -84v-428h-172q-61 0 -107.5 39t-58.5 98q-84 329 -84 737zM768 -387v1708h938q70 0 121 -50.5t51 -121.5v-1364q0 -71 -51 -121.5t-121 -50.5h-938z M1004 -109q0 -36 24 -61t59 -25t61 25.5t26 60.5t-25.5 59.5t-61.5 24.5q-35 0 -59 -24.5t-24 -59.5zM1004 147q0 -36 24 -61t59 -25t61 25.5t26 60.5t-25.5 59.5t-61.5 24.5q-35 0 -59 -24.5t-24 -59.5zM1004 403q0 -36 24 -61t59 -25t61 25.5t26 60.5t-25.5 59.5 t-61.5 24.5q-35 0 -59 -24.5t-24 -59.5zM1260 -109q0 -36 24 -61t59 -25t61 25.5t26 60.5t-25.5 59.5t-61.5 24.5q-35 0 -59 -24.5t-24 -59.5zM1260 147q0 -36 24 -61t59 -25t61 25.5t26 60.5t-25.5 59.5t-61.5 24.5q-35 0 -59 -24.5t-24 -59.5zM1260 403q0 -36 24 -61 t59 -25t61 25.5t26 60.5t-25.5 59.5t-61.5 24.5q-35 0 -59 -24.5t-24 -59.5zM1516 -109q0 -36 24 -61t59 -25t61 25.5t26 60.5t-25.5 59.5t-61.5 24.5q-35 0 -59 -24.5t-24 -59.5zM1516 147q0 -36 24 -61t59 -25t61 25.5t26 60.5t-25.5 59.5t-61.5 24.5q-35 0 -59 -24.5 t-24 -59.5zM1516 403q0 -36 24 -61t59 -25t61 25.5t26 60.5t-25.5 59.5t-61.5 24.5q-35 0 -59 -24.5t-24 -59.5z" />
<glyph unicode="5" d="M512 -360v1654q-3 70 48 121t122 51q2 0 4.5 -1t3.5 -1h668q1 0 3.5 1t4.5 1q71 0 122 -51t48 -121v-1654q0 -67 -47 -116t-113 -54h-704q-66 5 -113 54t-47 116zM598 -188h852v1310h-852v-1310zM924 -360q0 -41 29.5 -70t70.5 -29t70.5 29t29.5 70t-29.5 70.5 t-70.5 29.5t-70.5 -29.5t-29.5 -70.5zM930 1294q0 -16 16 -16h156q16 0 16 16q0 19 -16 19h-156q-16 0 -16 -19z" />
<glyph unicode="6" d="M367 -303v1542q0 37 22.5 60.5t59.5 23.5h1150q37 0 59.5 -23.5t22.5 -60.5v-1542q0 -37 -22.5 -59.5t-59.5 -22.5h-1150q-37 0 -59.5 22.5t-22.5 59.5zM512 -215h1024v1364h-1024v-1364zM983 -315q0 -17 12 -29t29 -12t29 12t12 29q0 19 -12 31t-29 12t-29 -12t-12 -31z " />
<glyph unicode="7" d="M86 -88l170 170v940q0 32 27 58t59 26h1364q32 0 59 -26t27 -58v-940l170 -170q0 -36 -23.5 -61t-60.5 -25h-1708q-37 0 -60.5 24t-23.5 62zM342 82h1364v940h-1364v-940zM784 -80q0 -8 27 -8h426q27 0 27 8q0 2 -2 2l-54 55q-7 7 -32 7h-304q-26 0 -30 -7l-56 -55z" />
<glyph unicode="8" d="M256 25v1142q0 28 19 47t47 19h1404q28 0 47 -19t19 -47v-1142q0 -28 -18.5 -47t-47.5 -19h-548l26 -203l43 -43v-6q-1 -4 -12.5 -6.5t-22.5 -2.5l-12 -1h-352q-45 0 -49 10v6l45 43l26 203h-548q-29 0 -47.5 19t-18.5 47zM342 272h1364v877h-1364v-877zM981 135 q0 -19 12 -31t31 -12t31 12t12 31t-12 31t-31 12t-31 -12t-12 -31z" />
<glyph unicode="9" d="M342 381v172h170v-172q0 -212 150 -362t362 -150t362 150t150 362v172h170v-172q0 -171 -78.5 -319t-215 -242.5t-302.5 -114.5v-94q112 -8 184 -30.5t72 -51.5v-86h-684v86q0 29 72 51.5t184 30.5v94q-166 20 -302.5 114.5t-215 242.5t-78.5 319zM682 381v768 q0 141 100.5 241.5t241.5 100.5t241.5 -100.5t100.5 -241.5v-768q0 -141 -100.5 -240.5t-241.5 -99.5t-241.5 99.5t-100.5 240.5z" />
<glyph unicode=":" d="M170 41v852q0 71 51 121.5t121 50.5h621l-340 338l30 31l369 -369h4l369 369l30 -31l-340 -338h621q70 0 121 -50.5t51 -121.5v-852q0 -71 -51 -121.5t-121 -50.5h-1364q-70 0 -121 50.5t-51 121.5zM342 82q0 -17 12 -29t29 -12h940q17 0 30 12t13 29v768 q0 18 -12.5 30.5t-30.5 12.5h-940q-17 0 -29 -12t-12 -31v-768zM342 -215h1364v-86h-1364v86zM1493 467q0 -54 37.5 -91.5t91.5 -37.5q53 0 90 37.5t37 91.5t-37 90.5t-90 36.5q-54 0 -91.5 -36.5t-37.5 -90.5zM1493 809q0 -54 37.5 -91.5t91.5 -37.5q53 0 90 37.5t37 91.5 q0 53 -37.5 90t-89.5 37q-54 0 -91.5 -37t-37.5 -90z" />
<glyph unicode=";" d="M170 -45v1024h481l369 369l31 -29l-340 -340h1167v-1024h-1708zM338 467q0 -10 10 -10h281q10 0 10 10q0 12 -10 12v-2l-279 2h-2q-10 0 -10 -12zM340 424q0 -3 4 -6.5t8 -3.5h277q10 0 10 10q0 12 -10 12h-277q-4 0 -8 -4t-4 -8zM340 510q0 -10 12 -10h277q10 0 10 10 t-10 10h-277q-12 0 -12 -10zM350 383q0 -12 10 -12v2l269 -2q10 0 10 12q0 10 -10 10h-269q-10 0 -10 -10zM350 553q0 -10 10 -10h269q10 0 10 10t-10 10h-269q-10 0 -10 -10zM365 340q0 -10 12 -10h252q10 0 10 10t-10 10h-252q-12 0 -12 -10zM365 596q0 -10 12 -10h252 q10 0 10 10t-10 10h-252q-12 0 -12 -10zM389 297q0 -10 10 -10h230q10 0 10 10t-10 10h-230q-10 0 -10 -10zM389 639q0 -12 10 -12v2l230 -2q10 0 10 12q0 10 -10 10h-230q-10 0 -10 -10zM422 254q0 -10 12 -10h195q10 0 10 10t-10 10h-195q-12 0 -12 -10zM422 680 q0 -3 4 -6.5t8 -3.5h195q10 0 10 10q0 12 -10 12h-195q-4 0 -8 -4t-4 -8zM471 211q0 -10 12 -10h146q10 0 10 10q0 12 -10 12v-2l-146 2q-5 0 -8.5 -3.5t-3.5 -8.5zM471 723q0 -10 12 -10h146q10 0 10 10q0 12 -10 12v-2l-146 2q-5 0 -8.5 -3.5t-3.5 -8.5zM559 168 q0 -10 10 -10h60q10 0 10 10q0 12 -10 12h-60q-10 0 -10 -12zM559 766q0 -10 10 -10h60q10 0 10 10t-10 10h-60q-10 0 -10 -10zM682 168q0 -3 4 -6.5t8 -3.5h60q10 0 10 10q0 12 -10 12h-60q-4 0 -8 -4t-4 -8zM682 211q0 -10 12 -10h146q10 0 10 10q0 12 -10 12v-2l-146 2 q-4 0 -8 -3.5t-4 -8.5zM682 254q0 -10 12 -10h195q10 0 10 10t-10 10h-195q-12 0 -12 -10zM682 297q0 -10 12 -10h230q10 0 10 10t-10 10h-230q-12 0 -12 -10zM682 340q0 -10 12 -10h252q10 0 10 10t-10 10h-252q-12 0 -12 -10zM682 383q0 -5 4 -8.5t8 -3.5v2l267 -2h2 q10 0 10 12q0 10 -10 10h-269q-12 0 -12 -10zM682 424q0 -3 4 -6.5t8 -3.5h277q10 0 10 10q0 12 -10 12h-277q-4 0 -8 -4t-4 -8zM682 467q0 -10 12 -10h281q10 0 10 10q0 4 -3.5 8t-6.5 4l-2 -2l-279 2q-4 0 -8 -3.5t-4 -8.5zM682 510q0 -10 12 -10h277q10 0 10 10t-10 10 h-277q-12 0 -12 -10zM682 553q0 -10 12 -10h269q10 0 10 10t-10 10h-269q-12 0 -12 -10zM682 596q0 -10 12 -10h252q10 0 10 10t-10 10h-252q-12 0 -12 -10zM682 639q0 -5 4 -8.5t8 -3.5v2l230 -2q10 0 10 12q0 10 -10 10h-230q-12 0 -12 -10zM682 680q0 -3 4 -6.5t8 -3.5 h195q10 0 10 10q0 12 -10 12h-195q-4 0 -8 -4t-4 -8zM682 723q0 -10 12 -10h146q10 0 10 10q0 12 -10 12v-2l-146 2q-4 0 -8 -3.5t-4 -8.5zM682 766q0 -10 12 -10h60q10 0 10 10t-10 10h-60q-12 0 -12 -10zM1110 510q0 -19 12 -31t29 -12q19 0 31 12t12 31q0 18 -12.5 30.5 t-30.5 12.5q-17 0 -29 -13t-12 -30zM1110 637q0 -17 12 -30t29 -13q18 0 30.5 12.5t12.5 30.5q0 19 -12 31t-31 12q-17 0 -29 -12t-12 -31zM1110 766q0 -19 12 -31t29 -12q19 0 31 12t12 31q0 18 -12.5 30.5t-30.5 12.5q-17 0 -29 -13t-12 -30zM1237 211q0 -19 12 -31 t31 -12t31 12t12 31t-12 31t-31 12t-31 -12t-12 -31zM1366 211q0 -19 12 -31t29 -12q19 0 31 12t12 31t-12 31t-31 12q-17 0 -29 -12t-12 -31zM1536 211q0 -35 25.5 -60.5t60.5 -25.5t59.5 25.5t24.5 60.5t-24.5 60.5t-59.5 25.5t-60.5 -25.5t-25.5 -60.5zM1536 381h170v428 h-170v-428z" />
<glyph unicode="&#x3c;" d="M170 -207q0 96 104.5 174t241.5 78q100 0 166 -51v1071l1024 170v-1237q0 -73 -107 -143t-241 -70q-106 0 -177 50t-71 128q0 89 87 162t210 88q8 0 24 1t23 1q97 0 168 -49v801l-854 -144v-995q0 -73 -108 -144t-240 -71q-106 0 -178 51t-72 129z" />
<glyph unicode="=" d="M383 -88h299v-299h-299v299zM383 -387l86 43h170v170l43 86l-84 -86v-127h-129zM725 -45l86 43h170v170l43 86l-86 -86v-127h-127zM725 -45v299h299v-299h-299zM725 -88h299v-299h-299v299zM725 -387l86 43h170v170l43 86l-86 -86v-127h-127zM1067 -88h299v-299h-299v299 zM1067 -387l84 43h172v170l43 86l-86 -86v-127h-129zM1067 487l84 43h172v172l43 84l-86 -84v-129h-129zM1067 487v299h299v-299h-299zM1067 829l84 43h172v170l43 86l-86 -86v-127h-129zM1067 829v299h299v-299h-299zM1407 147l86 43h170v170l43 86l-84 -86v-129h-129z M1407 147v299h299v-299h-299zM1407 487v299h299v-299h-299zM1407 487l86 43h170v172l43 84l-84 -84v-129h-129z" />
<glyph unicode="&#x3e;" d="M20 -12q0 13 3 28l63 512q54 -100 148.5 -165.5t205.5 -65.5q139 0 248.5 85.5t145.5 217.5q-40 -116 -139.5 -189t-225.5 -73q-158 0 -270.5 112.5t-112.5 272.5q0 159 112 271t271 112q170 0 287 -127h536q117 127 287 127q159 0 271 -112t112 -271 q0 -160 -112.5 -272.5t-270.5 -112.5q-123 0 -221.5 71t-138.5 185q37 -127 144.5 -208t242.5 -81q111 0 206.5 66.5t149.5 167.5l63 -523q3 -15 3 -28q0 -95 -69 -161.5t-169 -66.5q-85 0 -155 52t-111 137l-262 518h-476l-262 -518q-36 -75 -114.5 -132t-151.5 -57h-2 q-98 0 -167 67t-69 161zM233 659h129l66 64l-66 63h-129v-127zM406 487h126v129l-63 66l-63 -66v-129zM406 829l63 -65l63 65v129h-126v-129zM512 723l63 -64h130v127h-130zM854 723q0 -21 20 -21h107q9 0 16 6t7 15t-7 14.5t-16 5.5h-107q-20 0 -20 -20zM1044 723 q0 -9 7 -15t16 -6h107q20 0 20 21q0 20 -20 20h-107q-9 0 -16 -5.5t-7 -14.5zM1366 723q0 -29 20.5 -50.5t49.5 -21.5q30 0 50.5 21t20.5 51t-20.5 51t-50.5 21q-29 0 -49.5 -21.5t-20.5 -50.5zM1507 582q0 -30 21 -51t51 -21t51 21t21 51q0 29 -21 49t-51 20t-51 -20 t-21 -49zM1507 864q0 -29 21 -49t51 -20t51 20t21 49q0 30 -21 51t-51 21t-51 -21t-21 -51zM1651 723q0 -30 20 -51t49 -21t50.5 21.5t21.5 50.5t-21.5 50.5t-50.5 21.5t-49 -21t-20 -51z" />
<glyph unicode="?" d="M426 893q0 122 47.5 232.5t127.5 190.5t190.5 127.5t232.5 47.5t232.5 -47.5t190.5 -127.5t127.5 -190.5t47.5 -232.5q0 -205 -126.5 -365.5t-321.5 -212.5q-26 -6 -44.5 -26.5t-19.5 -46.5v-117h-342v172q20 127 109.5 222t214.5 126v2q82 22 135 90.5t53 155.5 q0 106 -75 181t-181 75t-181 -75t-75 -181h-342zM682 -301q0 106 75 181t181 75t181 -75t75 -181t-75 -181t-181 -75t-181 75t-75 181z" />
<glyph unicode="@" d="M170 -430v1792h1708v-1792h-1708zM299 -25h170v158h-170v-158zM299 -143v-158h170v158h-170zM299 250h170v158h-170v-158zM299 526h170v158h-170v-158zM299 801h170v157h-170v-157zM299 1077h170v158h-170v-158zM598 -258q0 -17 12 -30t29 -13h768q18 0 30.5 12.5 t12.5 30.5v627q0 15 -12.5 27t-30.5 12h-768q-17 0 -29 -12t-12 -27v-627zM598 565q0 -15 12 -27t29 -12h768q18 0 30.5 12t12.5 27v627q0 18 -12.5 30.5t-30.5 12.5h-768q-17 0 -29 -13t-12 -30v-627zM1579 -25h170v158h-170v-158zM1579 -143v-158h170v158h-170zM1579 250 h170v158h-170v-158zM1579 526h170v158h-170v-158zM1579 801h170v157h-170v-157zM1579 1077h170v158h-170v-158z" />
<glyph unicode="A" d="M86 -301v1536h1876v-1536h-1876zM170 -215h1708v1364h-1708v-1364zM426 -45l469 469l299 -299l299 598l213 -426v-342h-1280zM426 766q0 70 50.5 120t121.5 50q70 0 120 -50t50 -120q0 -71 -50 -121.5t-120 -50.5t-121 51t-51 121z" />
<glyph unicode="B" d="M111 373q0 328 231 534q106 90 253.5 143.5t319.5 53.5v-68q-235 -47 -354 -151q-121 -106 -121 -324q0 -123 39 -194q35 26 67 42.5t73.5 26.5t89.5 10q132 0 204 -90q70 -88 70 -188q0 -166 -117 -252q-119 -88 -272 -88q-225 0 -356 162q-127 160 -127 383zM1051 373 q0 170 67 301q138 276 438 381q151 49 314 49v-68q-238 -47 -357 -151q-120 -108 -120 -324q0 -135 41 -194q99 79 227 79q133 0 205 -90q71 -89 71 -188q0 -166 -118 -252q-116 -88 -271 -88q-226 0 -364 162q-133 160 -133 383z" />
<glyph unicode="C" d="M111 766q0 167 116 252q121 86 273 86q226 0 362 -160q135 -164 135 -383q0 -315 -245 -534q-102 -91 -252.5 -145t-321.5 -54v70q235 47 357 151q120 105 120 322q0 134 -41 196q-54 -41 -106 -60.5t-123 -19.5q-135 0 -205 91q-69 87 -69 188zM1065 766q0 166 117 252 q118 86 272 86q227 0 354 -160q129 -164 129 -383q0 -328 -231 -534q-103 -92 -252.5 -145.5t-323.5 -53.5v70q238 47 357 151q121 106 121 322q0 127 -41 196q-101 -80 -228 -80q-134 0 -204 91q-70 88 -70 188z" />
<glyph unicode="D" d="M100 449v43l623 337v-151l-381 -211l381 -209v-152zM682 -131l524 1196h160l-524 -1196h-160zM1323 106v152l379 209l-379 211v151l621 -337v-43z" />
<glyph unicode="E" d="M236 297h296v-684h-296v684zM662 -387v1280h299v-1280h-299zM1087 -387v1708h299v-1708h-299zM1516 -387v1024h296v-1024h-296z" />
<glyph unicode="F" d="M150 467q0 139 43 269t122 235.5t184 184.5t235 122t270 43v-854l602 -604q-118 -118 -273 -184t-329 -66q-140 0 -270 43t-235 122t-184 184.5t-122 235.5t-43 269zM1044 510v852q174 0 332.5 -67.5t272.5 -181.5t181.5 -271.5t67.5 -331.5h-854zM1174 424h854 q0 -174 -66 -329t-184 -273z" />
<glyph unicode="G" d="M170 -387v1708h172v-1536h1536v-172h-1708zM406 104v21h20v-21h-20zM406 446v21h20v-21h-20zM406 786v23h20v-23h-20zM406 1128v21h20v-21h-20zM426 227q0 32 27 49l395 396q16 26 49 26q31 0 47 -22l60 -60v21h20v-21h-20l170 -170v21h20v-21h-20l20 -22l582 582 q18 18 43 18t42 -17t17 -42q0 -23 -18 -45l-623 -621q-18 -18 -43 -18q-29 0 -45 22l-143 143h-2v3l-107 104l-369 -369q-19 -16 -43 -16q-25 0 -42 17t-17 42zM492 104v21h20v-21h-20zM492 446v21h20v-21h-20zM492 786v23h20v-23h-20zM492 1128v21h20v-21h-20zM575 104v21 h23v-21h-23zM575 446v21h23v-21h-23zM575 786v23h23v-23h-23zM575 1128v21h23v-21h-23zM662 18v23h20v-23h-20zM662 -45h20v-21h-20v21zM662 104v21h20v-21h-20zM662 -131h20v-21h-20v21zM662 190v21h20v-21h-20zM662 274v23h20v-23h-20zM662 530v23h20v-23h-20zM662 616v21 h20v-21h-20zM662 702v21h20v-21h-20zM662 786v23h20v-23h-20zM662 872v21h20v-21h-20zM662 958v21h20v-21h-20zM662 1042v23h20v-23h-20zM662 1128v21h20v-21h-20zM662 1214v21h20v-21h-20zM748 104v21h20v-21h-20zM748 786v23h20v-23h-20zM748 1128v21h20v-21h-20zM831 104 v21h23v-21h-23zM831 446v21h23v-21h-23zM831 786v23h23v-23h-23zM831 1128v21h23v-21h-23zM918 104v21h20v-21h-20zM918 446v21h20v-21h-20zM918 786v23h20v-23h-20zM918 1128v21h20v-21h-20zM1004 18v23h20v-23h-20zM1004 -45h20v-21h-20v21zM1004 104v21h20v-21h-20z M1004 -131h20v-21h-20v21zM1004 190v21h20v-21h-20zM1004 274v23h20v-23h-20zM1004 360v21h20v-21h-20zM1004 702v21h20v-21h-20zM1004 786v23h20v-23h-20zM1004 872v21h20v-21h-20zM1004 958v21h20v-21h-20zM1004 1042v23h20v-23h-20zM1004 1128v21h20v-21h-20zM1004 1214 v21h20v-21h-20zM1087 104v21h23v-21h-23zM1087 786v23h23v-23h-23zM1087 1128v21h23v-21h-23zM1174 104v21h20v-21h-20zM1174 786v23h20v-23h-20zM1174 1128v21h20v-21h-20zM1260 104v21h20v-21h-20zM1260 786v23h20v-23h-20zM1260 1128v21h20v-21h-20zM1343 18v23h23v-23 h-23zM1343 -45h23v-21h-23v21zM1343 104v21h23v-21h-23zM1343 -131h23v-21h-23v21zM1343 190v21h23v-21h-23zM1343 274v23h23v-23h-23zM1343 360v21h23v-21h-23zM1343 616v21h23v-21h-23zM1343 702v21h23v-21h-23zM1343 786v23h23v-23h-23zM1343 872v21h23v-21h-23z M1343 958v21h23v-21h-23zM1343 1042v23h23v-23h-23zM1343 1128v21h23v-21h-23zM1343 1214v21h23v-21h-23zM1430 104v21h20v-21h-20zM1430 446v21h20v-21h-20zM1430 786v23h20v-23h-20zM1430 1128v21h20v-21h-20zM1516 104v21h20v-21h-20zM1516 446v21h20v-21h-20zM1516 786 v23h20v-23h-20zM1516 1128v21h20v-21h-20zM1599 104v21h23v-21h-23zM1599 446v21h23v-21h-23zM1599 1128v21h23v-21h-23zM1686 18v23h20v-23h-20zM1686 -45h20v-21h-20v21zM1686 104v21h20v-21h-20zM1686 -131h20v-21h-20v21zM1686 190v21h20v-21h-20zM1686 274v23h20v-23 h-20zM1686 360v21h20v-21h-20zM1686 446v21h20v-21h-20zM1686 530v23h20v-23h-20zM1686 616v21h20v-21h-20zM1686 702v21h20v-21h-20zM1686 958v21h20v-21h-20zM1686 1042v23h20v-23h-20zM1686 1128v21h20v-21h-20zM1686 1214v21h20v-21h-20zM1772 104v21h20v-21h-20z M1772 446v21h20v-21h-20zM1772 786v23h20v-23h-20zM1772 1128v21h20v-21h-20z" />
<glyph unicode="H" d="M256 -471v1876h1536v-1876h-1536zM342 -45h1364v1366h-1364v-1366zM426 41l385 469l299 -299l297 598l215 -428v-340h-1196zM512 979q0 71 50 120.5t120 49.5q71 0 121.5 -50t50.5 -120t-50.5 -120t-121.5 -50q-70 0 -120 49.5t-50 120.5z" />
<glyph unicode="I" d="M170 -387v1708h172v-1536h1536v-172h-1708zM406 446v21h20v-21h-20zM406 786v23h20v-23h-20zM406 1128v21h20v-21h-20zM426 -129v356q0 32 27 49l395 396q16 26 49 26q31 0 47 -22l60 -60v21h20v-21h-20l170 -170v21h20v-21h-20l20 -22l582 582q18 18 43 18t42 -17 t17 -42v-4l-2 -1090h-1450zM492 446v21h20v-21h-20zM492 786v23h20v-23h-20zM492 1128v21h20v-21h-20zM575 446v21h23v-21h-23zM575 786v23h23v-23h-23zM575 1128v21h23v-21h-23zM662 530v23h20v-23h-20zM662 616v21h20v-21h-20zM662 702v21h20v-21h-20zM662 786v23h20v-23 h-20zM662 872v21h20v-21h-20zM662 958v21h20v-21h-20zM662 1042v23h20v-23h-20zM662 1128v21h20v-21h-20zM662 1214v21h20v-21h-20zM748 786v23h20v-23h-20zM748 1128v21h20v-21h-20zM831 786v23h23v-23h-23zM831 1128v21h23v-21h-23zM918 786v23h20v-23h-20zM918 1128v21 h20v-21h-20zM1004 702v21h20v-21h-20zM1004 786v23h20v-23h-20zM1004 872v21h20v-21h-20zM1004 958v21h20v-21h-20zM1004 1042v23h20v-23h-20zM1004 1128v21h20v-21h-20zM1004 1214v21h20v-21h-20zM1087 786v23h23v-23h-23zM1087 1128v21h23v-21h-23zM1174 786v23h20v-23 h-20zM1174 1128v21h20v-21h-20zM1260 786v23h20v-23h-20zM1260 1128v21h20v-21h-20zM1343 616v21h23v-21h-23zM1343 702v21h23v-21h-23zM1343 786v23h23v-23h-23zM1343 872v21h23v-21h-23zM1343 958v21h23v-21h-23zM1343 1042v23h23v-23h-23zM1343 1128v21h23v-21h-23z M1343 1214v21h23v-21h-23zM1430 786v23h20v-23h-20zM1430 1128v21h20v-21h-20zM1516 786v23h20v-23h-20zM1516 1128v21h20v-21h-20zM1599 1128v21h23v-21h-23zM1686 958v21h20v-21h-20zM1686 1042v23h20v-23h-20zM1686 1128v21h20v-21h-20zM1686 1214v21h20v-21h-20z M1772 1128v21h20v-21h-20z" />
<glyph unicode="J" d="M57 430q0 51 8 96t21 60q0 4 7 11t71 21t178 19q114 76 199 119t113 48l28 5h428q3 0 10 -1t33.5 -12.5t59 -30.5t87.5 -61.5t117 -99.5q111 -16 203 -35t150.5 -37t103 -36.5t67 -34t36.5 -27.5t17 -19l3 -7q6 -23 6 -66q0 -34 -6 -80q-21 -23 -50.5 -35.5t-48.5 -14.5 l-20 -1h-27q4 24 4 39q0 71 -49.5 120.5t-119.5 49.5t-120 -50t-50 -120q0 -27 4 -39h-822q4 24 4 39q0 70 -50 120t-120 50q-71 0 -121.5 -50t-50.5 -120q0 -9 5 -39h-23q-57 0 -149.5 35t-106.5 51q-29 29 -29 133zM403 231q0 54 37.5 91.5t91.5 37.5q53 0 90 -37.5 t37 -91.5q0 -53 -37.5 -90t-89.5 -37q-54 0 -91.5 37t-37.5 90zM1556 231q0 54 38 91.5t92 37.5q53 0 89.5 -37.5t36.5 -91.5q0 -53 -37 -90t-89 -37q-54 0 -92 37t-38 90z" />
<glyph unicode="K" d="M86 250v4v10q0 81 60 140q64 63 153 63h299q89 0 153 -63q60 -59 60 -140v-10v-4h-43v4v8q0 65 -48 112q-51 50 -122 50h-299q-72 0 -123 -50q-47 -46 -47 -110v-10v-4h-43zM86 553v512h1364v-512h-1364zM170 254q0 53 37.5 90t91.5 37q53 0 90 -37.5t37 -89.5 q0 -54 -37 -91.5t-90 -37.5q-54 0 -91.5 37.5t-37.5 91.5zM469 254q0 53 37.5 90t91.5 37q52 0 89.5 -37.5t37.5 -89.5q0 -54 -37 -91.5t-90 -37.5q-54 0 -91.5 37.5t-37.5 91.5zM1024 254q0 88 62.5 150.5t150.5 62.5h299v342q25 0 65 1t56 1q87 0 142 -4.5t67 -8.5l12 -5 q25 -18 54.5 -128t29.5 -173v-281h-86v43v8q0 65 -48 112q-51 50 -122 50q-60 0 -105 -35.5t-59 -91.5h-139q-15 56 -61 91.5t-105 35.5q-71 0 -122 -50q-48 -47 -48 -112v-8h-43zM1110 254q0 52 37 89.5t90 37.5q54 0 91.5 -37t37.5 -90q0 -54 -37.5 -91.5t-91.5 -37.5 q-53 0 -90 37.5t-37 91.5zM1579 254q0 52 37.5 89.5t89.5 37.5q54 0 91.5 -37t37.5 -90q0 -54 -37.5 -91.5t-91.5 -37.5q-53 0 -90 37.5t-37 91.5z" />
<glyph unicode="L" d="M86 82q0 160 112.5 272.5t270.5 112.5q160 0 272.5 -112.5t112.5 -272.5q0 -158 -112.5 -270.5t-272.5 -112.5q-158 0 -270.5 112.5t-112.5 270.5zM170 82q0 -123 88 -210t211 -87q124 0 211.5 87t87.5 210q0 124 -87 211.5t-212 87.5q-123 0 -211 -87.5t-88 -211.5z M594 651q0 68 57 125l310 309q17 17 40 17q29 0 43 -17q15 -22 66 -106l117 -191h223q28 0 47 -18.5t19 -46.5t-19 -47t-47 -19h-250q-41 0 -57 25l-119 121l-137 -137l211 -115q57 -33 57 -78q0 -7 -2 -16.5t-2 -10.5l-41 -405q0 -35 -25.5 -60.5t-60.5 -25.5t-60.5 25.5 t-25.5 60.5l43 362l-307 132q-38 17 -59 48t-21 68zM1126 1133q0 60 43.5 102.5t104.5 42.5q60 0 102.5 -42.5t42.5 -102.5t-42.5 -103t-102.5 -43q-61 0 -104.5 43t-43.5 103zM1194 82q0 160 112.5 272.5t272.5 112.5q158 0 270.5 -112.5t112.5 -272.5 q0 -158 -112.5 -270.5t-270.5 -112.5q-160 0 -272.5 112.5t-112.5 270.5zM1280 82q0 -123 87.5 -210t211.5 -87q123 0 211 87t88 210q0 124 -88 211.5t-211 87.5q-125 0 -212 -87.5t-87 -211.5z" />
<glyph unicode="M" d="M86 -88q0 124 87 211.5t210 87.5q125 0 212 -87.5t87 -211.5q0 -123 -87.5 -211t-211.5 -88q-123 0 -210 88t-87 211zM123 401q0 21 18 33q70 60 144 60q43 0 98 -25q53 -20 414 -176v-203l-428 287q-42 26 -88 26q-49 0 -93 -26q-17 -10 -28 -10q-15 0 -26 10t-11 24z M170 -88q0 -88 62.5 -150.5t150.5 -62.5q89 0 152 62.5t63 150.5q0 89 -63 151t-152 62q-88 0 -150.5 -62t-62.5 -151zM449 561q0 61 53 129q40 51 132.5 173t106.5 138q15 21 50 21q21 0 34 -10q17 -23 76 -99l139 -176l222 27l2 2h8q27 0 46 -19t19 -47q0 -25 -16.5 -43.5 t-42.5 -21.5l-248 -31h-8q-34 0 -51 19l-133 106l-119 -154l223 -88q66 -29 66 -79q0 -4 -1 -11t-1 -8h2v-420q0 -34 -22.5 -59t-57.5 -25q-32 0 -56.5 22t-27.5 54v365l-322 133q-73 33 -73 102zM786 1155q0 4 1 12.5t1 12.5q10 69 62.5 114t120.5 45q5 0 13.5 -1t12.5 -1 q65 -9 109 -57.5t49 -112.5q-11 5 -104 31q-4 2 -17 2q-20 0 -36.5 -12.5t-22.5 -32.5q0 -3 -1 -7.5t-1 -6.5q0 -41 47 -62q6 -3 46 -24t67 -35q-17 -47 -35 -62l-297 129q-15 37 -15 68zM1061 -70v476l299 77l72 -166zM1229 575q0 19 14 33.5t39 14.5h137q12 0 25.5 -12 t17.5 -21q2 -11 156 -334l-90 -27l-139 301h-107q-25 0 -39 13t-14 32zM1366 -88q0 124 87 211.5t210 87.5q125 0 212 -87.5t87 -211.5q0 -123 -87.5 -211t-211.5 -88q-123 0 -210 88t-87 211zM1450 -88q0 -88 62.5 -150.5t150.5 -62.5q89 0 152 62.5t63 150.5q0 89 -63 151 t-152 62q-88 0 -150.5 -62t-62.5 -151zM1530 537q59 28 127 28q45 0 88 -18q13 -8 25 -17.5t18 -14.5l6 -5q16 -11 16 -31q0 -14 -10.5 -24.5t-23.5 -10.5q-8 0 -19 7q-27 20 -71 20q-57 0 -99 -37q-15 22 -24 38t-18 34.5t-15 30.5z" />
<glyph unicode="N" d="M510 -215v1364l1182 -682z" />
<glyph unicode="O" d="M342 -215v1364h512v-1364h-512zM1194 -215v1364h512v-1364h-512z" />
<glyph unicode="P" d="M342 -215v1364h1364v-1364h-1364z" />
<glyph unicode="Q" d="M170 -215v1364l1180 -682zM1536 -215v1364h342v-1364h-342z" />
<glyph unicode="R" d="M170 -215v1364h342v-1364h-342zM698 467l1180 682v-1364z" />
<glyph unicode="S" d="M170 -43v1024l885 -512zM1057 -43v1024l885 -512z" />
<glyph unicode="T" d="M106 469l885 512v-1024zM993 469l885 512v-1024z" />
<glyph unicode="U" d="M170 297v297q0 160 112.5 272.5t272.5 112.5h553v215l588 -342l-588 -342v213h-553q-54 0 -91.5 -37.5t-37.5 -91.5v-148zM352 82l588 342v-213h553q54 0 91.5 37t37.5 90v149l256 150v-299q0 -158 -112.5 -270.5t-272.5 -112.5h-553v-215z" />
<glyph unicode="V" d="M170 -258q0 53 39 92l938 938q-37 73 -37 164q0 85 32.5 158t85.5 122t122 77t143 28q61 0 117 -18t97.5 -46.5t74.5 -66.5l-426 -115l-51 -188l139 -139l426 114l-6 -24q-17 -63 -53.5 -116.5t-85.5 -90.5t-109 -57.5t-123 -20.5q-90 0 -164 37l-938 -938 q-36 -39 -92 -39q-51 0 -90 39t-39 90z" />
<glyph unicode="W" d="M145 137l213 176q-16 78 -16 154t16 154l-213 176q55 146 154 266l258 -98q113 107 268 155l45 273q77 12 154 12q78 0 154 -12l45 -273q155 -48 268 -155l258 98q99 -120 154 -266l-213 -176q16 -78 16 -154t-16 -154l213 -176q-55 -146 -154 -266l-258 98 q-113 -107 -268 -155l-45 -273q-77 -12 -154 -12q-78 0 -154 12l-45 273q-155 48 -268 155l-258 -98q-99 120 -154 266zM682 467q0 -141 100.5 -241.5t241.5 -100.5t241.5 100.5t100.5 241.5t-100.5 241.5t-241.5 100.5t-241.5 -100.5t-100.5 -241.5z" />
<glyph unicode="X" d="M115 698q27 110 94 234l262 -66q64 89 143 148l-69 260q105 63 231 98l139 -231q47 8 109 8q46 0 96 -6l135 233q110 -27 234 -94l-66 -262q89 -64 148 -143l260 69q63 -105 98 -231l-231 -140q8 -47 8 -108q0 -46 -6 -96l233 -135q-27 -110 -94 -234l-262 66 q-64 -89 -143 -148l69 -260q-105 -63 -231 -98l-139 231q-47 -8 -109 -8q-46 0 -96 6l-135 -233q-110 27 -234 94l66 262q-89 64 -148 143l-260 -69q-63 105 -98 231l231 139q-8 47 -8 109q0 46 6 96zM682 467q0 -63 25 -124.5t68.5 -110t108.5 -78t140 -29.5q42 0 84 11 t79.5 31.5t70.5 51t57 68t37.5 84t13.5 96.5q0 63 -25 124.5t-68.5 110t-108.5 78t-140 29.5q-63 0 -124.5 -25t-110 -68.5t-78 -108.5t-29.5 -140z" />
<glyph unicode="Y" d="M147 659l158 70v16q0 63 14 115l-137 105q28 72 78 141l162 -64q40 45 102 82l-22 172q81 32 153 43l70 -157h16q59 0 115 -15l105 138q72 -28 141 -78l-64 -162q49 -46 82 -102l172 22q31 -77 43 -154l-157 -71v-15q0 -59 -15 -114l137 -105q-29 -75 -77 -141l-162 64 q-45 -48 -103 -82l23 -172q-77 -31 -154 -43l-71 157h-15q-58 0 -114 15l-105 -138q-72 28 -141 78l63 162q-45 40 -82 102l-172 -22q-32 81 -43 153zM522 745q0 -96 66.5 -157.5t152.5 -61.5q95 0 157.5 66.5t62.5 152.5q0 23 -11 60q-20 71 -79 115.5t-130 44.5 q-22 0 -59 -11q-71 -20 -115.5 -79t-44.5 -130zM1010 -96l106 88q-8 54 -8 78q0 27 8 77l-106 89q27 74 77 133l130 -50q61 58 135 78l22 138q38 6 76 6q41 0 78 -6l22 -138q76 -21 136 -78l129 50q50 -59 77 -133l-108 -89q10 -42 10 -77q0 -33 -10 -78l108 -88 q-25 -69 -77 -133l-129 49q-61 -54 -136 -78l-22 -137q-37 -6 -78 -6q-38 0 -76 6l-22 137q-74 23 -135 78l-130 -49q-52 64 -77 133zM1280 70.5q0 -70.5 50 -120.5t120 -50q72 0 122 49.5t50 120.5t-50 121.5t-122 50.5q-70 0 -120 -50.5t-50 -121z" />
<glyph unicode="Z" d="M291 608q0 18 8 29l256 342q-18 18 -18 41q0 11 4.5 22.5t8.5 17.5l5 5q129 147 170 190v193q36 -24 62.5 -50.5t39 -47t19 -37.5t7.5 -26l1 -9q100 0 187.5 -31.5t151 -83.5t115.5 -122t86 -145.5t56.5 -154.5t32.5 -147t10 -127v-469h-213q-24 0 -42 -4.5t-26 -10.5 t-12.5 -12.5t-5.5 -10.5v-5q0 -2 0.5 -5t5 -10t12.5 -13t26 -10.5t42 -4.5q15 0 24 -12.5t9 -30.5q0 -16 -9.5 -29.5t-23.5 -13.5q-24 0 -42 -4t-26 -10t-12.5 -12.5t-5.5 -10.5v-4q0 -2 0.5 -5t5 -10t12.5 -13t26 -10.5t42 -4.5h170q5 0 14 -1t31 -7.5t39 -19t31 -39 t14 -62.5v-170h-1110v170q0 36 13.5 62.5t32.5 39t37.5 19t31.5 7.5l14 1h170q24 0 42 4.5t26 10.5t12.5 12.5t5.5 10.5v5q0 2 -0.5 4.5t-5 9.5t-12.5 12.5t-26 10t-42 4.5q-14 0 -23.5 13.5t-9.5 29.5q0 18 9 30.5t24 12.5q24 0 42 4.5t26 11t12.5 12.5t5.5 10v5 q0 2 -0.5 5t-5 10t-12.5 13t-26 10.5t-42 4.5h-170q-38 0 -59.5 32t-24.5 64l-2 31q0 5 2.5 14.5t24 43t59.5 71.5l297 299q29 29 29 59q0 17 -7 34t-15 26l-7 8q-18 18 -43 18q-23 0 -41 -18l-256 -213q-6 -7 -15 -11t-14 -4l-6 -1h-5t-10.5 2t-14 5.5t-13 11t-8.5 17.5 q-17 -22 -41 -22q-18 0 -39.5 11.5t-34.5 22.5l-12 11q-51 48 -51 98z" />
<glyph unicode="[" d="M170 467q0 139 43 269.5t122 235.5t184 184t235.5 122t269.5 43t269.5 -43t235.5 -122t184 -184t122 -235.5t43 -269.5t-43 -269.5t-122 -235.5t-184 -184t-235.5 -122t-269.5 -43t-269.5 43t-235.5 122t-184 184t-122 235.5t-43 269.5zM342 467q0 -139 54 -265.5 t145 -217.5t217.5 -145t265.5 -54t265.5 54t217.5 145t145 217.5t54 265.5t-54 265.5t-145 217.5t-217.5 145t-265.5 54t-265.5 -54t-217.5 -145t-145 -217.5t-54 -265.5zM426 446v41h172v-41h-172zM907 436q29 50 299 516l148 -84l-213 -370l221 -127l-86 -150 q-258 150 -369 215zM1004 41h40v-172h-40v172zM1004 893v172h40v-172h-40zM1493 446v41h170v-41h-170z" />
<glyph unicode="\" d="M170 680q0 174 86 321.5t233.5 233.5t321.5 86q173 0 320.5 -86t233 -233.5t85.5 -321.5q0 -171 -82 -313l461 -461q49 -49 49 -121q0 -69 -49 -121q-52 -49 -121 -49q-72 0 -121 49l-461 461q-146 -84 -315 -84q-174 0 -321.5 85.5t-233.5 233t-86 320.5zM342 680 q0 -127 62.5 -235t170.5 -171t236 -63q127 0 235 63t171 171t63 235q0 128 -63 236t-171 170.5t-235 62.5q-195 0 -332 -137t-137 -332z" />
<glyph unicode="]" d="M170 -215q0 70 51 121l459 461q-82 148 -82 313q0 174 85.5 321.5t233 233.5t320.5 86q174 0 321.5 -86t233.5 -233.5t86 -321.5q0 -173 -86 -320.5t-233.5 -233t-321.5 -85.5q-166 0 -315 84l-459 -461q-52 -49 -121 -49q-72 0 -121 49q-51 54 -51 121zM768 680 q0 -127 63 -235t171 -171t235 -63q128 0 236.5 63t171.5 171t63 235q0 128 -63 236t-171.5 170.5t-236.5 62.5q-127 0 -235 -62.5t-171 -170.5t-63 -236z" />
<glyph unicode="^" d="M170 680q0 174 86 321.5t233.5 233.5t321.5 86q173 0 320.5 -86t233 -233.5t85.5 -321.5q0 -171 -82 -313l461 -461q49 -49 49 -121q0 -69 -49 -121q-52 -49 -121 -49q-72 0 -121 49l-461 461q-146 -84 -315 -84q-174 0 -321.5 85.5t-233.5 233t-86 320.5zM342 680 q0 -127 62.5 -235t170.5 -171t236 -63q127 0 235 63t171 171t63 235q0 128 -63 236t-171 170.5t-235 62.5q-195 0 -332 -137t-137 -332zM512 594v172h213v213h170v-213h215v-172h-215v-213h-170v213h-213z" />
<glyph unicode="_" d="M170 680q0 174 86 321.5t233.5 233.5t321.5 86q173 0 320.5 -86t233 -233.5t85.5 -321.5q0 -171 -82 -313l461 -461q49 -49 49 -121q0 -69 -49 -121q-52 -49 -121 -49q-72 0 -121 49l-461 461q-146 -84 -315 -84q-174 0 -321.5 85.5t-233.5 233t-86 320.5zM342 680 q0 -127 62.5 -235t170.5 -171t236 -63q127 0 235 63t171 171t63 235q0 128 -63 236t-171 170.5t-235 62.5q-195 0 -332 -137t-137 -332zM512 594v172h598v-172h-598z" />
<glyph unicode="`" d="M166 -391l483 1448l434 434h240l-426 -428q-42 10 -70 10q-64 0 -100 -33l2 -2l-6 -2q-68 -191 -139.5 -404.5t-108.5 -331.5l-37 -118q38 0 91.5 -32.5t99 -78t78 -99t32.5 -91.5q402 135 854 285l2 6l2 -2q33 36 33 100q0 28 -10 70l428 426v-240l-434 -434zM1116 963 l529 528h241l-631 -631q-81 67 -139 103zM1417 698l631 631v-242l-528 -528q-36 58 -103 139z" />
<glyph unicode="a" d="M172 -385l242 723l669 672l62 -60l-656 -657l-36 37l-2 -2q-35 -96 -71 -202.5t-54 -165.5l-19 -58q40 0 96 -56t56 -96q201 68 426 144l2 2l-37 36l657 656l60 -62l-672 -669zM569 213l656 657l61 -61l-657 -655zM711 72l655 657l61 -61l-657 -656zM1145 1071l59 59 l484 -483l-60 -59zM1266 1192l59 59q79 76 182 76q105 0 181 -76l120 -121q76 -76 76 -180q0 -103 -76 -182l-59 -59z" />
<glyph unicode="b" d="M166 100q0 161 113 271l725 725l59 -62l-725 -723q-86 -89 -86 -211q0 -125 86 -211q88 -88 213 -88q123 0 211 88l964 965q64 64 64 152q0 84 -65 148.5t-150 64.5q-89 0 -150 -64l-663 -663q-39 -39 -39 -91q0 -51 39 -89t90 -38q53 0 90 37l574 574l59 -62l-571 -573 q-65 -62 -152 -62t-152 62q-61 64 -61 151q0 88 61 152l664 664q89 86 211 86q124 0 213 -86q86 -89 86 -211q0 -125 -86 -211l-967 -967q-113 -113 -270 -113q-156 0 -272 113q-113 113 -113 272z" />
<glyph unicode="c" d="M29 811q0 100 38.5 194.5t112.5 168.5q72 73 166 111t195 38q100 0 194.5 -38t167.5 -111q81 -81 121 -193q40 112 121 193q73 73 167.5 111t194.5 38q101 0 195 -38t166 -111q74 -74 112.5 -168.5t38.5 -194.5t-38.5 -194t-112.5 -168q-183 -182 -602 -603l-242 -241 l-844 844q-74 74 -112.5 168t-38.5 194z" />
<glyph unicode="d" d="M29 815q0 100 38.5 194.5t112.5 166.5q72 74 166.5 112.5t194.5 38.5t194 -38.5t168 -112.5q81 -78 121 -193q38 110 121 193q74 74 168 112.5t194 38.5t194.5 -38.5t168.5 -112.5q72 -72 110.5 -166.5t38.5 -194.5t-38 -194t-111 -168q-185 -185 -604 -605l-242 -241 l-844 846q-74 74 -112.5 168t-38.5 194zM115 815q0 -178 125 -303l784 -784q111 113 319.5 320.5t255.5 254.5l209 209q125 125 125 303q0 176 -125 301t-301 125q-178 0 -303 -125q-57 -60 -96 -153l-84 -199l-82 194q-39 96 -98 158q-125 125 -303 125q-176 0 -301 -125 t-125 -301z" />
<glyph unicode="e" d="M117 676l657 49l250 610l250 -610l657 -49l-504 -426l156 -639l-559 346l-559 -346l156 639z" />
<glyph unicode="f" d="M117 676l657 49l250 610l250 -610l657 -49l-504 -426l156 -639l-559 346l-559 -346l156 639zM317 610l392 -331l-121 -498l436 270l436 -270l-121 498l392 331l-512 39l-195 475l-195 -475z" />
<glyph unicode="g" d="M168 6v1090q0 23 15 38t38 15h1604q22 0 37.5 -15t15.5 -38v-1090q0 -23 -15.5 -38t-37.5 -15h-269v-322l-319 322h-1016q-23 0 -38 15t-15 38z" />
<glyph unicode="h" d="M170 -186v624q0 12 9 20.5t20 8.5h227v-299q0 -60 33 -94q32 -34 85 -33h3q86 0 534 2v-229q0 -12 -8 -20.5t-20 -8.5h-541l-170 -172v172h-143q-11 0 -20 8.5t-9 20.5zM512 168v938q0 19 12 31t31 12h1280q18 0 30.5 -12.5t12.5 -30.5v-938q0 -17 -13 -30t-30 -13h-213 v-256l-256 256h-811q-18 0 -30.5 12.5t-12.5 30.5z" />
<glyph unicode="i" d="M682 -45h172v512h-172v170h512v-682h172v-170h-684v170zM768 1065q0 106 75 181t181 75t181 -75t75 -181t-75 -181t-181 -75t-181 75t-75 181z" />
<glyph unicode="j" d="M307 1126q0 33 24 59.5t60 26.5q30 0 53.5 -17t30.5 -46l397 -1485q2 -6 2 -20q0 -36 -23.5 -61t-62.5 -25q-28 0 -51 17t-30 46l-398 1483q-2 8 -2 22zM662 1110q34 -18 79 -18q72 0 190.5 47.5t224 104t224 104t191.5 47.5q44 0 80 -19q-39 -188 -88 -329 q61 -84 127 -166.5t102 -122.5l35 -41q-35 18 -80 18q-72 0 -190 -47.5t-223.5 -104t-224 -104t-191.5 -47.5q-44 0 -80 19z" />
<glyph unicode="k" d="M170 735v2v498q0 35 25.5 60.5t60.5 25.5h500q16 0 28 -12l983 -983h2q13 -13 13 -31t-13 -31h-2l-542 -545q-13 -10 -29 -10q-19 0 -31 12q0 3 -2 3l-983 983q-10 13 -10 28zM342 1065q0 -35 24.5 -60.5t59.5 -25.5t60.5 25.5t25.5 60.5t-25.5 59.5t-60.5 24.5 t-59.5 -24.5t-24.5 -59.5z" />
<glyph unicode="l" d="M219 735v2v498q0 35 24.5 60.5t59.5 25.5h498h4q17 0 29 -12l983 -983q12 -12 12 -31t-12 -31l-545 -545q-13 -10 -29 -10q-21 0 -31 15h-2l-981 983q-10 10 -10 28zM274 -342v784l299 -827h-258q-17 0 -29 12t-12 31zM274 571l779 -909l-252 -104q-6 -2 -15 -2 q-28 0 -41 26v2zM389 1065q0 -35 25.5 -60.5t60.5 -25.5t59.5 25.5t24.5 60.5t-24.5 59.5t-59.5 24.5t-60.5 -24.5t-25.5 -59.5z" />
<glyph unicode="m" d="M342 41q106 0 181 75t75 181v852q0 90 54.5 159t140.5 91q61 -66 99 -162.5t46 -210.5v-971q-38 -14 -84 -14h-512zM870 1405h324q141 0 241.5 -124.5t100.5 -301.5v-1450l-256 256l-256 -256v1450q0 133 -41.5 244t-112.5 182z" />
<glyph unicode="n" d="M0 -387l242 563l397 78l385 -78l59 12l-239 557q-33 81 -33 156q0 160 112.5 272.5t270.5 112.5q160 0 272.5 -112.5t112.5 -272.5q0 -71 -31 -149l-221 -514l80 16l399 -78l242 -563l-524 102l-500 -102l-500 102zM129 -315l408 86l12 61l80 -80l108 -22l-172 172l15 71 l264 -264l106 -22l-356 356l16 70l414 -414v-27l487 99l50 -11l-60 60l-22 108l190 -190l109 -25l-324 324l-22 108l452 -454l35 -6l-37 96l-432 430l-35 8l-104 -20l-117 -273l-96 230l-74 -15v-16l-18 20l-107 21l125 -125v-86l-231 231l-109 23l340 -340v-84l-399 399 l8 35l-324 -72zM1004 901q0 -78 56 -134t134 -56q79 0 135.5 56t56.5 134q0 80 -56.5 136.5t-135.5 56.5q-78 0 -134 -57t-56 -136zM1559 188l268 -268l-53 137l-105 107z" />
<glyph unicode="o" d="M512 809q0 212 150 362t362 150t362 -150t150 -362q0 -107 -41 -203l-471 -1098l-467 1092q-45 98 -45 209zM768 809q0 -106 75 -181t181 -75t181 75t75 181t-75 181t-181 75t-181 -75t-75 -181z" />
<glyph unicode="p" d="M170 -215v682q0 70 50.5 120t121.5 50h156q-21 -21 -60 -84h-96q-35 0 -60.5 -25.5t-25.5 -60.5v-682q0 -35 25.5 -60.5t60.5 -25.5h1024q35 0 59.5 25.5t24.5 60.5v115l86 86v-201q0 -71 -50 -121.5t-120 -50.5h-1024q-70 0 -121 50.5t-51 121.5zM477 41 q0 174 67.5 331.5t181.5 271.5t271.5 181.5t331.5 67.5v342l598 -598l-598 -596v340q-232 0 -428 -45.5t-310 -124t-114 -170.5z" />
<glyph unicode="q" d="M170 467q0 106 75 181t181 75q62 0 115.5 -27.5t89.5 -74.5l737 317q-2 12 -2 41q0 106 75 181t181 75t181 -75t75 -181t-75 -181t-181 -75q-60 0 -113.5 26.5t-87.5 71.5l-741 -317q2 -12 2 -37q0 -27 -2 -39l739 -317q34 46 87.5 73t115.5 27q106 0 181 -75t75 -181 t-75 -181t-181 -75t-181 75t-75 181q0 25 2 37l-739 317q-36 -45 -89.5 -71.5t-113.5 -26.5q-106 0 -181 75t-75 181z" />
<glyph unicode="r" d="M86 -215q0 106 75 181t181 75t181 -75t75 -181t-75 -181t-181 -75t-181 75t-75 181zM256 381v342q208 0 397.5 -81t327 -218.5t218.5 -327t81 -397.5h-342q0 139 -54 265.5t-145 217.5t-217.5 145t-265.5 54zM256 1065v340q174 0 343.5 -35t320.5 -99t289.5 -157.5 t253 -208t208 -253t157.5 -289.5t99 -320.5t35 -343.5h-340q0 186 -49 363t-137 326.5t-214.5 276t-276 214.5t-326.5 137t-363 49z" />
<glyph unicode="s" d="M170 637q0 139 43 269.5t122 235.5t184 184t235.5 122t269.5 43t269.5 -43t235.5 -122t184 -184t122 -235.5t43 -269.5q0 -250 -133 -457t-352 -311l18 201v6q136 94 215.5 241.5t79.5 319.5q0 139 -54 265.5t-145 218t-217.5 146t-265.5 54.5t-265.5 -54.5t-217.5 -146 t-145 -218t-54 -265.5q0 -172 79.5 -319.5t215.5 -241.5v-6l16 -201q-217 104 -350 311t-133 457zM512 637q0 212 150 362t362 150t362 -150t150 -362q0 -104 -40 -198.5t-112 -164.5q-30 87 -90 154q72 94 72 209q0 141 -100.5 241.5t-241.5 100.5t-241.5 -100.5 t-100.5 -241.5q0 -115 72 -209q-60 -67 -90 -154q-72 70 -112 164.5t-40 198.5zM791 150v18q0 87 67 150t166 63t166 -63t67 -150v-18l-63 -621h-340zM854 637q0 71 50 121.5t120 50.5t120 -50.5t50 -121.5t-50 -120.5t-120 -49.5t-120 49.5t-50 120.5z" />
<glyph unicode="t" d="M10 -197q443 22 602 185q-153 6 -248 90t-122 209q58 -13 102 -13q26 0 66 7q-135 23 -228.5 127.5t-93.5 228.5q0 24 8 70q8 -3 34.5 -14.5t44 -18t41.5 -13t40 -6.5q-168 140 -168 316v8q4 152 55 229q169 -221 412 -331q45 -20 72 -29q34 -14 108 -33q2 -1 6.5 -2 t6.5 -2q2 0 6 -1t6 -1q45 -9 63 -12q18 -2 80.5 -17.5t91.5 -15.5q9 0 13 2q-9 40 -9 84q0 118 53 218.5t148.5 160t210.5 59.5q161 0 299 -131q156 21 283 121q-44 -159 -181 -256q126 22 230 61q-31 -66 -80 -113t-123 -93v-27q0 -6 -1 -20t-1 -21h2q0 -163 -43 -318 t-120.5 -286.5t-188 -241.5t-241.5 -187t-286 -120t-317 -43q-161 0 -325.5 51.5t-307.5 138.5z" />
<glyph unicode="u" d="M426 254v938q0 89 62.5 151t150.5 62q89 0 152 -62t63 -151v-299h639q89 0 151 -62t62 -151q0 -88 -62 -150.5t-151 -62.5h-639v-213q0 -88 61.5 -150.5t147.5 -62.5h430q89 0 151 -63t62 -152q0 -88 -62 -150.5t-151 -62.5h-428q-130 0 -248 51t-204 137t-136.5 204.5 t-50.5 248.5z" />
<glyph unicode="v" d="M598 553v256h170v258q0 69 18.5 124t45.5 90t69 60t77 37t83 18.5t73 7.5t60 1q106 0 256 -31l-47 -272q-10 1 -36 5t-49.5 6.5t-45.5 2.5q-162 0 -162 -137v-170h293l-19 -256h-274v-940h-342v940h-170z" />
<glyph unicode="w" d="M127 467q0 177 125.5 301.5t302.5 124.5t301.5 -124.5t124.5 -301.5t-124.5 -301.5t-301.5 -124.5t-302.5 124.5t-125.5 301.5zM1067 467q0 177 124.5 301.5t301.5 124.5t301.5 -124.5t124.5 -301.5t-124.5 -301.5t-301.5 -124.5t-301.5 124.5t-124.5 301.5z" />
<glyph unicode="x" d="M63 842q0 8 3.5 15.5t6.5 10.5l3 4q50 46 385 316q79 65 172 65q90 0 157 -62.5t84 -172.5q64 -409 100 -550q28 -113 54 -155q41 -63 70 -63q5 0 10 1.5t11 5t10.5 7t11.5 10.5l11 11t13 13.5t13 14.5q43 45 79 105.5t86 163.5q39 80 39 153q0 63 -33 101t-108 38 q-47 0 -102 -14q22 80 54.5 145.5t67.5 108t77 74t78.5 48.5t76.5 27t65.5 12.5t51.5 2.5h32q149 0 230.5 -81t81.5 -226q0 -128 -68 -299q-42 -104 -99 -206t-121 -188.5t-118 -154t-116.5 -131t-88.5 -88.5t-59 -56q-220 -204 -377 -204q-189 0 -284 299 q-55 172 -87.5 291.5t-50.5 200t-24 100.5q-21 77 -44 134.5t-41 85t-36 44t-26.5 19.5t-16.5 3h-2q-4 0 -12.5 -2.5t-41.5 -24t-75 -59.5q-12 -6 -21 -6t-16.5 3.5t-10.5 7.5l-3 3q-18 27 -47 78q-5 7 -5 21z" />
<glyph unicode="y" d="M342 467q0 139 53.5 265t144.5 217.5t217 145.5t265 54v215l588 -342l-588 -340v211q-175 0 -299.5 -124.5t-124.5 -301.5q0 -71 27 -150l-224 -129q-59 127 -59 279zM438 -88l588 340v-211q175 0 299.5 124.5t124.5 301.5q0 70 -27 149l224 129q59 -127 59 -278 q0 -139 -53.5 -265t-144.5 -217.5t-217 -145.5t-265 -54v-215z" />
<glyph unicode="z" d="M340 465h2v2v19q0 128 50 246q54 127 145 218t218.5 145t266.5 54v215l588 -342l-588 -340v211q-175 0 -299.5 -124.5t-124.5 -301.5q0 -71 27 -150h-2q47 -125 157 -204q101 -73 221 -73q11 0 21 1h4q27 0 41 2q3 0 9 1t9 1t8.5 1t8.5 1q34 9 69 21q123 45 201 154 t78 245q0 70 -27 149l224 129q59 -127 59 -278q0 -171 -78 -318.5t-214 -242t-302 -115.5q-46 -6 -90 -6q-139 0 -265 53.5t-217.5 144.5t-145.5 217t-54 265z" />
<glyph unicode="{" d="M170 211v512h598v598h512v-598h598v-512h-598v-598h-512v598h-598z" />
<glyph unicode="|" d="M170 211v512h1708v-512h-1708z" />
<glyph unicode="}" d="M170 211v512h1708v-512h-1708zM725 -174q0 124 87.5 211.5t211.5 87.5t211.5 -87.5t87.5 -211.5q0 -123 -87.5 -210t-211.5 -87t-211.5 87t-87.5 210zM725 1106q0 124 87.5 211.5t211.5 87.5t211.5 -87.5t87.5 -211.5q0 -123 -87.5 -210t-211.5 -87t-211.5 87t-87.5 210z " />
<glyph unicode="~" d="M240 45l422 422l-422 422l362 362l422 -422l422 422l362 -362l-422 -422l422 -422l-362 -362l-422 421l-422 -421z" />
<glyph />
<glyph unicode="&#xa1;" horiz-adv-x="344" />
<glyph unicode="&#xa2;" horiz-adv-x="729" />
<glyph unicode="&#xa3;" d="M256 -45h170v256h-170v342h170v145v-8q0 173 86.5 318.5t233.5 229t321 83.5q173 0 320.5 -86t233 -233.5t85.5 -321.5h-340q0 124 -88 211.5t-211 87.5q-125 0 -212.5 -86t-86.5 -209v-131h383v-342h-383v-256h938v-342h-1450v342z" />
<glyph unicode="&#xa5;" horiz-adv-x="917" />
<glyph unicode="&#xa6;" horiz-adv-x="331" />
<glyph unicode="&#xa7;" horiz-adv-x="675" />
<glyph unicode="&#xa8;" horiz-adv-x="407" />
<glyph unicode="&#xa9;" horiz-adv-x="991" />
<glyph unicode="&#xaa;" horiz-adv-x="561" />
<glyph unicode="&#xab;" horiz-adv-x="1200" />
<glyph unicode="&#xac;" horiz-adv-x="907" />
<glyph unicode="&#xad;" horiz-adv-x="903" />
<glyph unicode="&#xae;" horiz-adv-x="1001" />
<glyph unicode="&#xaf;" horiz-adv-x="503" />
<glyph unicode="&#xb0;" d="M170 385q0 126 73.5 226t190.5 139q23 120 117 198t219 78q86 0 161.5 -40t121.5 -109q81 65 186 65q124 0 211.5 -88t87.5 -213q0 -13 -4 -45q73 -9 132.5 -50t93.5 -105.5t34 -139.5q0 -125 -87.5 -213t-211.5 -88h-940q-105 0 -193.5 52t-140 140.5t-51.5 192.5z M672 164q0 -31 30 -48.5t74 -13.5q42 4 73.5 27t31.5 47v350l299 49v-280q-18 14 -43 17.5t-48.5 -3.5t-44 -19.5t-33 -30.5t-12.5 -36q0 -30 31 -48t74 -13q43 6 73.5 28.5t30.5 45.5h2v434l-360 -60v-374q-25 16 -57 16t-58 -12t-44.5 -33t-18.5 -43z" />
<glyph unicode="&#xb1;" horiz-adv-x="978" />
<glyph unicode="&#xb2;" horiz-adv-x="755" />
<glyph unicode="&#xb3;" horiz-adv-x="526" />
<glyph unicode="&#xb4;" horiz-adv-x="399" />
<glyph unicode="&#xb5;" horiz-adv-x="727" />
<glyph unicode="&#xb6;" horiz-adv-x="1101" />
<glyph unicode="&#xb7;" horiz-adv-x="376" />
<glyph unicode="&#xb8;" horiz-adv-x="569" />
<glyph unicode="&#xb9;" horiz-adv-x="411" />
<glyph unicode="&#xba;" horiz-adv-x="497" />
<glyph unicode="&#xbb;" horiz-adv-x="1220" />
<glyph unicode="&#xbc;" horiz-adv-x="1492" />
<glyph unicode="&#xbd;" horiz-adv-x="1468" />
<glyph unicode="&#xbe;" horiz-adv-x="1492" />
<glyph unicode="&#xbf;" horiz-adv-x="757" />
<glyph unicode="&#xc0;" horiz-adv-x="1306" />
<glyph unicode="&#xc1;" horiz-adv-x="1306" />
<glyph unicode="&#xc2;" horiz-adv-x="1308" />
<glyph unicode="&#xc3;" horiz-adv-x="1306" />
<glyph unicode="&#xc4;" d="M170 553q0 35 25.5 59.5t60.5 24.5h172q0 -66 48.5 -118t121.5 -52q45 0 84.5 22.5t62.5 61.5l50 86h458l50 -86q23 -39 62.5 -61.5t84.5 -22.5q73 0 121.5 52t48.5 118h172q35 0 60.5 -24.5t25.5 -59.5t-25.5 -60.5t-60.5 -25.5l-170 -682q-6 -24 -17.5 -41.5t-22 -26 t-22.5 -13t-16.5 -5t-7.5 -0.5h-1024q-3 0 -7.5 0.5t-16.5 5t-22.5 13t-22 26t-17.5 41.5l-170 682q-35 0 -60.5 25.5t-25.5 60.5zM512 637q0 25 12 43l256 444q22 43 74 43q36 0 60 -26.5t24 -59.5q0 -25 -10 -43l-256 -444q-24 -41 -74 -41q-38 0 -62 25t-24 59zM598 -88 q0 -17 12 -30t29 -13q18 0 30.5 12.5t12.5 30.5v342q0 18 -12.5 30.5t-30.5 12.5q-17 0 -29 -13t-12 -30v-342zM854 -88q0 -17 12 -30t29 -13q18 0 30.5 12.5t12.5 30.5v342q0 18 -12.5 30.5t-30.5 12.5q-17 0 -29 -13t-12 -30v-342zM1110 -88q0 -17 12 -30t29 -13 q18 0 30.5 12.5t12.5 30.5v342q0 18 -12.5 30.5t-30.5 12.5q-17 0 -29 -13t-12 -30v-342zM1110 1081q0 34 24 60t60 26q52 0 74 -43l256 -444q12 -18 12 -43q0 -34 -24 -59t-62 -25q-50 0 -74 41l-256 444q-10 18 -10 43zM1366 -88q0 -17 12 -30t29 -13q18 0 30.5 12.5 t12.5 30.5v342q0 18 -12.5 30.5t-30.5 12.5q-17 0 -29 -13t-12 -30v-342z" />
<glyph unicode="&#xc5;" d="M170 1235q0 35 25.5 60.5t60.5 25.5h150q61 0 86 -86l194 -1194h1020q35 0 60.5 -25.5t25.5 -60.5t-25.5 -60.5t-60.5 -25.5h-1088q-4 0 -9.5 0.5t-18 5.5t-23.5 13t-21 25.5t-14 41.5l-190 1194h-86q-35 0 -60.5 25.5t-25.5 60.5zM596 1065l1282 -86v-512l-1157 -170z M662 -344q0 54 36.5 91.5t89.5 37.5q54 0 92 -37.5t38 -91.5q0 -53 -38 -90t-92 -37q-52 0 -89 37t-37 90zM1450 -344q0 54 37.5 91.5t91.5 37.5q53 0 90 -37.5t37 -91.5q0 -52 -37 -89.5t-90 -37.5q-54 0 -91.5 37t-37.5 90z" />
<glyph unicode="&#xc6;" horiz-adv-x="1796" />
<glyph unicode="&#xc7;" d="M86 381l938 940l938 -940h-170l-768 768l-768 -768h-170zM426 381l598 598l598 -598v-768h-385v768h-426v-768h-385v768zM1366 1149v172h256v-428z" />
<glyph unicode="&#xc8;" horiz-adv-x="897" />
<glyph unicode="&#xc9;" d="M170 -45v854q59 -44 335.5 -251t424.5 -318q37 -29 94 -29t94 29q148 111 423 316.5t337 252.5v-854l-428 342l401 -401q-24 -27 -59 -27h-1536q-35 0 -59 27l401 401zM170 893q0 35 25.5 60.5t60.5 25.5h1536q35 0 60.5 -25.5t25.5 -60.5q-59 -44 -335.5 -251 t-424.5 -318q-39 -27 -94 -27t-94 27q-148 111 -423 316.5t-337 252.5z" />
<glyph unicode="&#xca;" horiz-adv-x="897" />
<glyph unicode="&#xcb;" horiz-adv-x="894" />
<glyph unicode="&#xcc;" horiz-adv-x="577" />
<glyph unicode="&#xcd;" horiz-adv-x="460" />
<glyph unicode="&#xce;" horiz-adv-x="567" />
<glyph unicode="&#xcf;" horiz-adv-x="546" />
<glyph unicode="&#xd0;" horiz-adv-x="1214" />
<glyph unicode="&#xd1;" d="M170 -215v852q59 -44 335.5 -251t424.5 -318q39 -27 94 -27t94 27q148 111 423 316.5t337 252.5v-852l-428 340l401 -401q-25 -25 -59 -25h-1536q-34 0 -59 25l401 401zM170 723q59 44 335.5 251t424.5 318q42 29 94 29t94 -29q111 -83 241 -180.5t278 -208t241 -180.5 q-97 -72 -684 -512l-76 -57q-42 -29 -94 -29t-94 29q-107 80 -306 229.5t-239 179.5z" />
<glyph unicode="&#xd2;" horiz-adv-x="987" />
<glyph unicode="&#xd3;" horiz-adv-x="987" />
<glyph unicode="&#xd4;" horiz-adv-x="987" />
<glyph unicode="&#xd5;" horiz-adv-x="987" />
<glyph unicode="&#xd6;" d="M170 -215v852q59 -44 335.5 -251t424.5 -318q39 -27 94 -27t94 27q148 111 423 316.5t337 252.5v-852l-428 340l401 -401q-25 -25 -59 -25h-1536q-34 0 -59 25l401 401zM170 723q59 44 335.5 251t424.5 318q42 29 94 29t94 -29q148 -111 423 -316.5t337 -252.5l-215 -160 l-41 -33v107q0 35 -25.5 60.5t-60.5 25.5h-1024q-35 0 -60.5 -25.5t-25.5 -60.5v-107q-49 39 -145 110.5t-111 82.5z" />
<glyph unicode="&#xd7;" horiz-adv-x="808" />
<glyph unicode="&#xd8;" horiz-adv-x="1015" />
<glyph unicode="&#xd9;" horiz-adv-x="913" />
<glyph unicode="&#xda;" horiz-adv-x="913" />
<glyph unicode="&#xdb;" horiz-adv-x="913" />
<glyph unicode="&#xdc;" d="M256 -387l63 442q9 66 59.5 111t113.5 45h1064q63 0 113.5 -45t59.5 -111l63 -442h-1536zM682 979q0 141 100.5 241.5t241.5 100.5t241.5 -100.5t100.5 -241.5q0 -46 -12 -86l-80 -315h-2q-20 -86 -89 -141.5t-159 -55.5t-159 55.5t-89 141.5h-2l-80 315q-12 41 -12 86z " />
<glyph unicode="&#xdd;" horiz-adv-x="724" />
<glyph unicode="&#xde;" horiz-adv-x="817" />
<glyph unicode="&#xdf;" horiz-adv-x="1132" />
<glyph unicode="&#xe0;" d="M170 -45h172v-170h1364v170h172v-342h-1708v342zM426 637h385v684h426v-684h385l-598 -596z" />
<glyph unicode="&#xe1;" d="M86 -301l53 377q7 55 50 93t96 38h336q-58 -39 -70 -111l-55 -397h-410zM449 860q0 120 84 204.5t204 84.5q95 0 170 -53q-33 -74 -33 -148q0 -47 13 -94l78 -279l-15 -57h-2q-17 -73 -76 -119.5t-135 -46.5t-134 46.5t-77 119.5l-69 268q-8 31 -8 74zM580 -301l57 397 q9 60 53.5 100t100.5 40h960q56 0 101.5 -40.5t54.5 -99.5l55 -397h-1382zM965 928q0 128 89.5 217.5t217.5 89.5t217.5 -89.5t89.5 -217.5q0 -36 -10 -78l-74 -285q-19 -76 -81 -126t-142 -50t-142 50t-81 126h-2l-72 285q-10 42 -10 78z" />
<glyph unicode="&#xe2;" d="M170 -45h172v-170h1364v170h172v-342h-1708v342zM426 723l598 598l598 -598h-385v-682h-426v682h-385z" />
<glyph unicode="&#xe3;" d="M256 -45l512 512l-512 512l256 256l512 -512l512 512l256 -256l-512 -512l512 -512l-256 -256l-512 512l-512 -512z" />
<glyph unicode="&#xe4;" d="M170 905q0 81 31.5 157.5t91.5 135.5q59 60 135.5 91.5t157.5 31.5q53 0 104 -13.5t100 -41.5t89 -68l145 -145q59 -59 90 -135.5t31 -157.5q0 -54 -15 -107q-303 304 -399 400q-61 61 -145 61q-87 0 -148 -61t-61 -148q0 -84 61 -145l400 -400q-49 -14 -107 -14 q-53 0 -105 13.5t-100.5 41t-87.5 66.5l-145 145q-60 60 -91.5 136.5t-31.5 156.5zM627 760q0 17 5.5 33t15 28.5t22 22t28.5 15t33 5.5q44 0 74 -30l586 -586q30 -30 30 -74q0 -43 -30.5 -73.5t-73.5 -30.5q-44 0 -74 30l-586 586q-30 30 -30 74zM903 174q0 55 15 107 q303 -305 399 -400q61 -61 145 -61q87 0 148 61t61 148q0 84 -61 145q-98 98 -400 399q52 15 107 15q172 0 293 -121l145 -145q123 -123 123 -293q0 -173 -123 -293q-39 -40 -87.5 -68t-100 -41.5t-105.5 -13.5q-31 0 -62.5 5t-62 15t-59.5 24.5t-57 34.5t-52 44l-145 145 q-59 59 -90 135.5t-31 157.5z" />
<glyph unicode="&#xe5;" d="M86 297l256 256l340 -342l1024 1024l256 -256l-1280 -1280q-219 219 -596 598z" />
<glyph unicode="&#xe6;" horiz-adv-x="1204" />
<glyph unicode="&#xe7;" d="M256 1149q0 35 25.5 60.5t60.5 25.5h426q0 71 50 120.5t120 49.5h172q70 0 120 -49.5t50 -120.5h426q35 0 60.5 -25.5t25.5 -60.5t-25.5 -59.5t-60.5 -24.5h-1364q-35 0 -60.5 24.5t-25.5 59.5zM426 -301v1280h1196v-1280q0 -70 -50.5 -120t-121.5 -50h-852 q-71 0 -121.5 50t-50.5 120zM598 -258q0 -19 12 -31t29 -12q19 0 31 12t12 31v1024q0 18 -12.5 30.5t-30.5 12.5q-17 0 -29 -13t-12 -30v-1024zM854 -258q0 -19 12 -31t29 -12q19 0 31 12t12 31v1024q0 18 -12.5 30.5t-30.5 12.5q-17 0 -29 -13t-12 -30v-1024zM854 1235h340 q0 35 -24.5 60.5t-59.5 25.5h-172q-35 0 -59.5 -25.5t-24.5 -60.5zM1110 -258q0 -19 12 -31t29 -12q19 0 31 12t12 31v1024q0 18 -12.5 30.5t-30.5 12.5q-17 0 -29 -13t-12 -30v-1024zM1366 -258q0 -19 12 -31t29 -12q19 0 31 12t12 31v1024q0 18 -12.5 30.5t-30.5 12.5 q-17 0 -29 -13t-12 -30v-1024z" />
<glyph unicode="&#xe8;" d="M469 -387v854h170v256q0 160 112.5 271.5t272.5 111.5t271.5 -111.5t111.5 -271.5v-256h172v-854h-1110zM811 467h426v256q0 89 -62 151t-151 62t-151 -62t-62 -151v-256zM938 125q0 -46 43 -74v-182h86v182q43 28 43 74q0 35 -25.5 60.5t-60.5 25.5t-60.5 -25.5 t-25.5 -60.5z" />
<glyph unicode="&#xe9;" d="M426 -170v1364q0 70 51 121t121 51h512v-256q0 -106 75 -181t181 -75h256v-1024q0 -70 -51 -121t-121 -51h-852q-70 0 -121 51t-51 121zM639 131q0 -18 12.5 -30.5t30.5 -12.5h684q17 0 29 12t12 31q0 17 -12 30t-29 13h-684q-17 0 -30 -13t-13 -30zM639 383 q0 -17 13 -29t30 -12h684q17 0 29 12t12 29q0 19 -12 31t-29 12h-684q-18 0 -30.5 -12.5t-12.5 -30.5zM639 639q0 -17 13 -29t30 -12h684q17 0 29 12t12 29q0 19 -12 31t-29 12h-684q-18 0 -30.5 -12.5t-12.5 -30.5zM639 895q0 -17 13 -29t30 -12h299q19 0 31 12t12 29 q0 19 -12 31t-31 12h-299q-18 0 -30.5 -12.5t-12.5 -30.5zM1194 1110v256l428 -428h-256q-70 0 -121 51t-51 121z" />
<glyph unicode="&#xea;" d="M342 -387v854h768v342q0 158 112.5 270.5t270.5 112.5q160 0 272.5 -112.5t112.5 -270.5v-256l-172 -86v342q0 88 -62 150.5t-151 62.5q-88 0 -150.5 -62.5t-62.5 -150.5v-342h170v-854h-1108zM811 125q0 -49 43 -74v-182h84v182q43 25 43 74q0 36 -25 61t-61 25 q-35 0 -59.5 -25.5t-24.5 -60.5z" />
<glyph unicode="&#xeb;" d="M170 -215v768h1708v-768q0 -35 -25.5 -60.5t-60.5 -25.5h-1536q-35 0 -60.5 25.5t-25.5 60.5zM170 637v172q2 9 18 25l136 120q29 25 59 25h299q32 0 61 -25l136 -120q22 -25 59 -25h854q35 0 59.5 -24.5t26.5 -59.5v-88h-1708z" />
<glyph unicode="&#xec;" d="M170 979q0 35 25.5 60.5t60.5 25.5t59 -27l2 2l615 -426h2q38 -24 90 -24q51 0 96 28l611 422l2 -2q24 27 59 27t60.5 -25.5t25.5 -60.5t-27 -59l2 -2l-755 -1006q-24 -43 -74 -43t-74 43l-755 1006l2 2q-27 24 -27 59z" />
<glyph unicode="&#xed;" d="M170 -45q0 35 27 59l-2 2l755 1006q24 43 74 43t74 -43l755 -1006l-2 -2q27 -24 27 -59t-25.5 -60.5t-60.5 -25.5t-59 27l-2 -2l-611 421q-47 29 -96 29q-51 0 -90 -25h-2l-615 -425l-2 2q-24 -27 -59 -27t-60.5 25.5t-25.5 60.5z" />
<glyph unicode="&#xee;" d="M426 723l598 598l598 -598h-385v-1110h-426v1110h-385z" />
<glyph unicode="&#xef;" d="M426 211h385v1110h426v-1110h385l-598 -598z" />
<glyph unicode="&#xf0;" horiz-adv-x="1011" />
<glyph unicode="&#xf1;" d="M170 254v426h1110v385l598 -598l-598 -598v385h-1110z" />
<glyph unicode="&#xf2;" d="M426 467l172 51v-102zM602 45l80 164q9 -12 40.5 -43.5t43.5 -40.5zM602 889l164 -80q-12 -9 -43.5 -40.5t-40.5 -43.5zM682 467q0 141 100.5 241.5t241.5 100.5t241.5 -100.5t100.5 -241.5t-100.5 -241.5t-241.5 -100.5t-241.5 100.5t-100.5 241.5zM973 41h102l-51 -172 zM973 893l51 172l51 -172h-102zM1282 125q12 9 43.5 40.5t40.5 43.5l80 -164zM1282 809l164 80l-80 -164q-9 12 -40.5 43.5t-43.5 40.5zM1450 416v102l172 -51z" />
<glyph unicode="&#xf3;" d="M170 467l598 598v-385h1110v-426h-1110v-385z" />
<glyph unicode="&#xf4;" d="M170 338q0 126 73 225.5t189 138.5q23 119 117.5 198t218.5 79q88 0 162 -41t121 -111q82 66 186 66q125 0 212 -87.5t87 -211.5q0 -13 -4 -45q111 -14 185.5 -98t74.5 -197q0 -124 -87 -211.5t-212 -87.5h-938q-160 0 -272.5 112.5t-112.5 270.5z" />
<glyph unicode="&#xf5;" d="M170 680q0 126 73 225.5t189 138.5q23 119 117.5 198t218.5 79q87 0 161.5 -41.5t121.5 -110.5q82 66 186 66q125 0 212 -87.5t87 -211.5q0 -17 -4 -45q111 -14 185.5 -98t74.5 -199q0 -123 -87.5 -210t-211.5 -87h-938q-160 0 -272.5 112.5t-112.5 270.5zM528 -86 q0 12 2 20l60 226v2v-2l166 -164v-2q28 -34 28 -80q0 -39 -23 -72.5t-59 -46.5q-8 -4 -12 -4h-2q-4 -2 -12 -2q-6 -2 -21 -2q-50 0 -88.5 35.5t-38.5 91.5zM913 -150l62 226h-2h2q15 -16 74.5 -76t91.5 -92q26 -31 26 -78q0 -40 -22.5 -73t-59.5 -48q-4 0 -12 -4q-2 0 -6 -1 t-6 -1q-3 0 -10.5 -1t-10.5 -1q-51 0 -89 36t-38 91v22zM1296 0q0 12 2 18v2l60 226v2v-2v2v-2l166 -164v-2q28 -39 28 -80q0 -40 -22.5 -73t-59.5 -46q-8 -4 -12 -4l-2 -2h-12q-6 -2 -21 -2q-50 0 -88.5 35.5t-38.5 91.5z" />
<glyph unicode="&#xf6;" d="M170 254q0 126 73 225.5t189 138.5q23 118 118 196.5t218 78.5q87 0 161.5 -40.5t121.5 -109.5q82 66 186 66q124 0 211.5 -88t87.5 -211q0 -17 -4 -45q111 -15 185.5 -99.5t74.5 -197.5q0 -123 -87.5 -211t-211.5 -88h-938q-160 0 -272.5 112.5t-112.5 272.5zM1038 1233 l162 -80l-84 -84zM1116 874q24 118 117.5 196.5t216.5 78.5q141 0 241.5 -99.5t100.5 -240.5q0 -93 -46.5 -172.5t-123.5 -124.5q-1 158 -114 269.5t-271 111.5q-62 0 -121 -19zM1409 1235l51 172l51 -172q-5 0 -25.5 1t-25.5 1t-25.5 -1t-25.5 -1zM1718 467 q12 11 43.5 42.5t40.5 41.5l80 -164zM1718 1153l164 80l-80 -164q-9 11 -40.5 42t-43.5 42zM1884 760q2 10 2 49q0 41 -2 51l172 -51z" />
<glyph unicode="&#xf7;" horiz-adv-x="821" />
<glyph unicode="&#xf8;" horiz-adv-x="827" />
<glyph unicode="&#xf9;" d="M117 -8l307 178l-293 135l37 78l346 -162l424 246l-424 246l-346 -162l-37 78l293 135l-307 178l41 74l309 -178l-29 321l86 8l33 -381l424 -245v489l-313 221l49 70l264 -186v356h86v-356l264 186l49 -70l-313 -221v-489l424 245l33 381l86 -8l-29 -321l309 178l41 -74 l-307 -178l293 -135l-37 -78l-346 162l-424 -246l424 -246l346 162l37 -78l-293 -135l307 -178l-41 -74l-309 178l29 -321l-86 -8l-33 380l-424 246v-489l313 -221l-49 -70l-264 186v-356h-86v356l-264 -186l-49 70l313 221v489l-424 -246l-33 -380l-86 8l29 321l-309 -178z M424 170l47 -23l4 52zM467 838l4 -52l47 23zM475 199l74 -6l6 10l-41 18zM518 809l31 -68h12l-4 45zM981 -96v-45l43 61l-6 8zM981 -141v-60l43 29zM1024 1014l6 -8l37 24v45zM1024 1106l43 -31v60zM1487 193l4 -46l39 -22l-31 68h-12zM1493 731l41 -18l39 22l-74 6z M1530 125l51 -29l-4 51zM1573 735l51 29l-47 22z" />
<glyph unicode="&#xfa;" d="M170 680q0 126 73 225.5t189 138.5q23 119 117.5 198t218.5 79q87 0 161.5 -41.5t121.5 -110.5q82 66 186 66q125 0 212 -87.5t87 -211.5q0 -17 -4 -45q111 -14 185.5 -98t74.5 -199q0 -123 -87.5 -210t-211.5 -87h-938q-160 0 -272.5 112.5t-112.5 270.5zM854 211h170 l86 -256l170 68l86 -494l-172 340l-170 -84z" />
<glyph unicode="&#xfb;" d="M170 680q0 126 73 225.5t189 138.5q23 119 117.5 198t218.5 79q87 0 161.5 -41.5t121.5 -110.5q82 66 186 66q125 0 212 -87.5t87 -211.5q0 -17 -4 -45q111 -14 185.5 -98t74.5 -199q0 -123 -87.5 -210t-211.5 -87h-938q-160 0 -272.5 112.5t-112.5 270.5zM600 -74l10 15 l64 -37l-6 67l18 2l6 -79l88 -52v103l-65 45l10 14l55 -37v74h19v-74l55 37l10 -14l-65 -45v-103l88 52l6 79l18 -2l-6 -67l64 37l10 -15l-66 -37l62 -28l-8 -17l-72 35l-88 -51l88 -51l72 33l8 -17l-62 -29l66 -36l-10 -15l-64 37l6 -67h-18l-6 77l-88 52v-103l65 -45 l-10 -14l-55 39v-74h-19v74l-55 -39l-10 14l65 45v103l-88 -52l-6 -77h-18l6 67l-64 -37l-10 15l64 36l-60 29l6 17l74 -33l88 51l-88 51l-74 -35l-6 17l60 28zM1069 96l10 17l64 -37l-6 65l18 2l6 -80l88 -49v101l-65 47l10 14l55 -39v74h19v-74l55 39l10 -14l-65 -47v-101 l88 49l6 80l18 -2l-6 -65l64 37l10 -17l-64 -37l60 -28l-6 -17l-74 35l-88 -51l88 -51l74 35l6 -17l-60 -28l64 -37l-10 -17l-64 37l6 -65l-18 -2l-6 79l-88 50v-101l65 -47l-10 -14l-55 39v-74h-19v74l-55 -39l-10 14l65 47v101l-88 -50l-6 -79l-18 2l6 65l-64 -37l-10 17 l66 37l-62 28l8 17l72 -35l88 51l-88 51l-72 -35l-8 17l62 28z" />
<glyph unicode="&#xfc;" d="M170 383q0 126 73 226t189 139q23 119 117.5 197.5t218.5 78.5q88 0 162 -41t121 -111q82 66 186 66q125 0 212 -87t87 -212q0 -13 -4 -45q111 -14 185.5 -98t74.5 -197q0 -125 -87 -212t-212 -87h-938q-160 0 -272.5 112.5t-112.5 270.5zM684 299l299 -299l299 299h-192 v340h-213v-340h-193z" />
<glyph unicode="&#xfd;" horiz-adv-x="925" />
<glyph unicode="&#xfe;" horiz-adv-x="817" />
<glyph unicode="&#xff;" horiz-adv-x="929" />
<glyph unicode="&#x152;" horiz-adv-x="1579" />
<glyph unicode="&#x153;" horiz-adv-x="1265" />
<glyph unicode="&#x178;" horiz-adv-x="727" />
<glyph unicode="&#x2c6;" horiz-adv-x="495" />
<glyph unicode="&#x2dc;" horiz-adv-x="446" />
<glyph unicode="&#x2000;" horiz-adv-x="745" />
<glyph unicode="&#x2001;" horiz-adv-x="1491" />
<glyph unicode="&#x2002;" horiz-adv-x="745" />
<glyph unicode="&#x2003;" horiz-adv-x="1491" />
<glyph unicode="&#x2004;" horiz-adv-x="497" />
<glyph unicode="&#x2005;" horiz-adv-x="372" />
<glyph unicode="&#x2006;" horiz-adv-x="248" />
<glyph unicode="&#x2007;" horiz-adv-x="248" />
<glyph unicode="&#x2008;" horiz-adv-x="186" />
<glyph unicode="&#x2009;" horiz-adv-x="298" />
<glyph unicode="&#x200a;" horiz-adv-x="82" />
<glyph unicode="&#x2010;" horiz-adv-x="903" />
<glyph unicode="&#x2011;" horiz-adv-x="903" />
<glyph unicode="&#x2012;" horiz-adv-x="903" />
<glyph unicode="&#x2013;" horiz-adv-x="903" />
<glyph unicode="&#x2014;" horiz-adv-x="1861" />
<glyph unicode="&#x2018;" horiz-adv-x="141" />
<glyph unicode="&#x2019;" horiz-adv-x="141" />
<glyph unicode="&#x201a;" horiz-adv-x="319" />
<glyph unicode="&#x201c;" horiz-adv-x="540" />
<glyph unicode="&#x201d;" horiz-adv-x="540" />
<glyph unicode="&#x201e;" horiz-adv-x="544" />
<glyph unicode="&#x2022;" horiz-adv-x="690" />
<glyph unicode="&#x2026;" horiz-adv-x="1034" />
<glyph unicode="&#x202f;" horiz-adv-x="298" />
<glyph unicode="&#x2039;" d="M426 467q0 50 43 74l1006 755l2 -2q24 27 59 27t60.5 -25.5t25.5 -60.5t-27 -59l2 -2l-421 -611q-29 -47 -29 -96q0 -53 24 -90v-2l426 -615l-2 -2q27 -24 27 -59t-25.5 -60.5t-60.5 -25.5t-59 27l-2 -2l-1006 755q-43 24 -43 74z" />
<glyph unicode="&#x203a;" d="M512 -301q0 34 25 59v2l424 615v2q26 41 26 90t-29 96l-421 611v2q-25 25 -25 59q0 35 25.5 60.5t60.5 25.5t59 -27v2l1006 -755q43 -22 43 -74t-43 -74l-1006 -755v2q-24 -27 -59 -27t-60.5 25.5t-25.5 60.5z" />
<glyph unicode="&#x205f;" horiz-adv-x="372" />
<glyph unicode="&#x20ac;" d="M256 211v170h90q-4 29 -4 86t4 86h-90v170h125q83 263 307 430.5t506 167.5q174 0 330 -66t274 -184l-242 -242q-70 70 -164 110t-198 40q-139 0 -257 -69.5t-185 -186.5h442v-170h-504q-8 -58 -8 -86t8 -86h504v-170h-442q67 -117 185 -186.5t257 -69.5q104 0 198 39.5 t164 109.5l242 -241q-118 -118 -274 -184t-330 -66q-282 0 -506 167.5t-307 430.5h-125z" />
<glyph unicode="&#x2122;" horiz-adv-x="1402" />
<glyph unicode="&#xe000;" horiz-adv-x="1280" d="M0 0v1280h1280v-1280h-1280z" />
<glyph unicode="&#xfb01;" d="M4 399h35v-88q0 -53 65 -53q27 0 39 4v47q-4 -4 -22 -4q-27 0 -27 33v61h49v43h-49v56h-55v-56h-35v-43zM4 733q0 49 35 84t84.5 35t84 -35t34.5 -84t-34.5 -84t-84 -35t-84.5 35t-35 84zM51 686l25 -24l47 45l47 -48l25 27l-48 45l50 47l-27 27l-47 -47l-47 47l-25 -25 l47 -47zM145 352q0 -42 28.5 -68t72.5 -26q49 0 76 35l-39 29q-19 -23 -41 -23q-10 0 -18.5 4.5t-14.5 13t-8 19.5h129v16q0 43 -23 70t-61 27q-43 0 -72 -27.5t-29 -69.5zM201 373q2 15 11.5 25t27.5 10q15 0 24.5 -10.5t9.5 -24.5h-73zM256 733q0 49 35 84t84.5 35t84 -35 t34.5 -84t-34.5 -84t-84 -35t-84.5 35t-35 84zM311 678l8 -10l56 55l55 -55l8 10l-53 55l53 53l-8 11l-55 -54l-53 54l-11 -9l54 -55zM334 262h55v90q0 47 35 47q10 0 16.5 -4.5t9 -13t3 -14.5t0.5 -17v-88h55v100q0 41 -14 64t-52 23q-20 0 -34 -9.5t-19 -21.5h-2v24h-53 v-180zM508 733q0 49 35 84t84 35t83.5 -34.5t34.5 -84.5t-34.5 -84.5t-83.5 -34.5t-84 35t-35 84zM555 686l25 -24l47 45l45 -48l26 27l-47 45l47 47l-24 27l-47 -47l-47 47l-25 -25l45 -47zM567 262h23v31h2q8 -17 27 -26t40 -9q40 0 66.5 25.5t26.5 64.5q0 40 -27 69 t-66 29q-51 0 -67 -34h-2v86h-23v-236zM588 348q0 30 21 54t50 24q31 0 50.5 -23.5t19.5 -54.5q0 -30 -19 -49.5t-51 -19.5q-19 0 -35.5 9t-26 25t-9.5 35zM739 442l72 -178l-16 -41q-9 -30 -29 -30q-3 0 -21 6l-2 -23q12 -4 23 -4q33 0 49 39l90 231h-24l-58 -149l-57 149 h-27zM758 733q0 49 35 84t84 35t83.5 -34.5t34.5 -84.5t-34.5 -84.5t-83.5 -34.5t-84 35t-35 84zM805 686l24 -24l48 45l47 -48l24 27l-47 45l49 47l-26 27l-47 -47l-48 47l-24 -25l47 -47zM930 399h37v-88q0 -53 65 -53q27 0 39 4v47q-4 -4 -22 -4q-17 0 -22 8.5t-5 24.5 v61h49v43h-49v56h-55v-56h-37v-43zM1057 442l65 -180h58l32 121l39 -121h56l63 180h-57l-33 -112l-35 112h-61l-31 -112l-37 112h-59zM1354 352q0 -42 28.5 -68t71.5 -26q49 0 76 35l-39 29q-19 -23 -41 -23q-15 0 -26.5 10t-14.5 27h129v16q0 21 -6 39t-17 31t-26.5 20 t-34.5 7q-43 0 -71.5 -27.5t-28.5 -69.5zM1409 373q2 15 11.5 25t27.5 10q10 0 18 -5t12.5 -13t4.5 -17h-74zM1542 262h55v90q0 47 35 47q10 0 16.5 -4.5t9 -13t3 -14.5t0.5 -17v-88h55v100q0 41 -13.5 64t-51.5 23q-20 0 -34.5 -9.5t-19.5 -21.5h-2v24h-53v-180zM1716 399 h37v-88q0 -53 66 -53q27 0 39 4v47q-4 -4 -23 -4q-17 0 -22 8.5t-5 24.5v61h50v43h-50v56h-55v-56h-37v-43zM1839 442l80 -182q-1 -3 -3.5 -9.5t-3.5 -9t-3.5 -7t-5 -6.5t-6 -4.5t-8.5 -3.5t-11 -1q-15 0 -27 6l-8 -45q19 -8 43 -8q36 0 50 13.5t26 47.5l82 209h-57 l-39 -118h-2l-45 118h-62z" />
<glyph unicode="&#xfb02;" d="M174 -51h53v82h86v-82h144l55 -174h2l47 174h94l52 -174l51 174h88l-98 -277h-86l-58 185l-51 -185h-86l-78 213v-6h-76v-92q0 -26 8 -38.5t33 -12.5q24 0 35 8v-70q-23 -10 -59 -10q-46 0 -74.5 21t-28.5 63v131h-53v70zM174 1153q0 42 16 79.5t43 65t64.5 44t79.5 16.5 q85 0 145 -60t60 -145t-60 -144t-145 -59t-144 59t-59 144zM178 373v67h55v82h84v-82h76v-67h-76v-92q0 -27 7.5 -39.5t33.5 -12.5t35 9v-72q-24 -8 -59 -8q-46 0 -73.5 20.5t-27.5 63.5v131h-55zM254 1073l43 -43l80 80l80 -80l43 43l-80 80l82 80l-45 43l-80 -80l-80 82 l-43 -43l80 -82zM393 303q0 64 44.5 103.5t109.5 39.5q40 0 69.5 -17.5t45.5 -49.5t16 -76v-27h-199q5 -25 22 -40t42 -15q36 0 61 35l60 -45q-20 -26 -51 -39.5t-66 -13.5q-65 0 -109.5 39.5t-44.5 105.5zM479 334h113q0 22 -15 36.5t-38 14.5q-13 0 -24.5 -4t-19 -11 t-11.5 -16.5t-5 -19.5zM604 1153q0 85 60 145t145 60t144 -60t59 -145t-59 -144t-144 -59t-145 59t-60 144zM684 164v276h82v-37q10 17 32 30t50 13q60 0 81 -33t21 -96v-153h-86v135v15t-1 14t-2.5 14t-5 12t-8 10.5t-12 6t-16.5 2.5q-51 0 -51 -72v-137h-84zM698 1061 l17 -17l94 93l94 -95l17 19l-95 92l95 94l-17 17l-94 -93l-94 93l-17 -17l95 -92zM819 -190q0 43 20.5 76.5t55.5 51t78 17.5q60 0 94.5 -39.5t34.5 -105.5v-27h-199q6 -25 23.5 -39t42.5 -14q34 0 59 32l62 -43q-14 -17 -33.5 -29.5t-40.5 -19t-43 -6.5q-66 0 -110 40.5 t-44 105.5zM903 -158h113q1 13 -5.5 25t-18.5 19.5t-27 7.5q-19 0 -33 -7.5t-21 -19t-8 -25.5zM1036 1153q0 56 27 103t73.5 74.5t102.5 27.5q85 0 145 -60t60 -145t-60 -144t-145 -59t-144 59t-59 144zM1040 164v360h35v-131h2q14 26 43.5 39.5t61.5 13.5q59 0 98 -45 t39 -106q0 -60 -38.5 -98.5t-98.5 -38.5q-32 0 -61.5 13.5t-43.5 39.5h-2v-47h-35zM1071 295q0 -44 32.5 -75.5t78.5 -31.5t75 31t29 76q0 47 -29.5 84t-74.5 37t-78 -37.5t-33 -83.5zM1108 -51h82v-39h2q8 19 29.5 32t50.5 13q60 0 81 -34t21 -97v-152h-86v135q0 16 -1 25 t-4.5 22t-13 19t-24.5 6q-21 0 -33 -10.5t-15 -24t-3 -34.5v-138h-86v277zM1116 1073l43 -43l80 80l80 -80l43 43l-80 80l82 80l-43 43l-82 -80l-80 82l-43 -43l80 -82zM1303 440h38l91 -229l88 229h36l-139 -356q-23 -57 -76 -57q-16 0 -34 6l4 33l10 -2.5l12 -3t10 -1.5 q28 0 46 45l24 64zM1374 -51h53v82h86v-82h142l69 -182h2l62 182h86l-125 -322q-9 -23 -13.5 -33t-14 -24.5t-20 -20t-28 -10t-41.5 -4.5q-30 0 -63 10l10 70q19 -8 41 -8q8 0 15 1.5t12 3t9.5 6t7 7.5t6 10t4.5 10t4.5 12t4.5 13l-94 215v-6h-76v-92q0 -26 8 -38.5 t33 -12.5q24 0 35 8v-70q-23 -10 -59 -10q-46 0 -74.5 21t-28.5 63v131h-53v70zM1466 1153q0 85 60 145t145 60t144 -60t59 -145t-59 -144t-144 -59q-56 0 -103 27t-74.5 73.5t-27.5 102.5zM1546 1073l43 -43l80 80l82 -80l43 43l-80 80l80 80l-43 43l-80 -80l-82 82 l-43 -43l82 -82z" />
</font>
</defs>
</svg>
